<mxfile host="app.diagrams.net" agent="Mozilla/5.0 (Windows NT 10.0; Win64; x64) AppleWebKit/537.36 (KHTML, like Gecko) Chrome/130.0.0.0 Safari/537.36 Edg/130.0.0.0" version="24.8.4" pages="14">
  <diagram name="HARQ-ACK" id="Uc7Y426lwXYGZM6LqXw5">
    <mxGraphModel dx="786" dy="505" grid="1" gridSize="10" guides="1" tooltips="1" connect="1" arrows="1" fold="1" page="1" pageScale="1" pageWidth="827" pageHeight="1169" math="0" shadow="0">
      <root>
        <mxCell id="0" />
        <mxCell id="1" parent="0" />
        <mxCell id="W44_wNCcNRFnUswYYEH9-28" value="" style="edgeStyle=entityRelationEdgeStyle;rounded=0;orthogonalLoop=1;jettySize=auto;html=1;startArrow=none;endArrow=none;segment=10;curved=1;sourcePerimeterSpacing=0;targetPerimeterSpacing=0;" edge="1" parent="1" source="W44_wNCcNRFnUswYYEH9-10" target="W44_wNCcNRFnUswYYEH9-26">
          <mxGeometry relative="1" as="geometry" />
        </mxCell>
        <mxCell id="W44_wNCcNRFnUswYYEH9-29" value="" style="edgeStyle=entityRelationEdgeStyle;rounded=0;orthogonalLoop=1;jettySize=auto;html=1;startArrow=none;endArrow=none;segment=10;curved=1;sourcePerimeterSpacing=0;targetPerimeterSpacing=0;" edge="1" parent="1" source="W44_wNCcNRFnUswYYEH9-10" target="W44_wNCcNRFnUswYYEH9-26">
          <mxGeometry relative="1" as="geometry" />
        </mxCell>
        <mxCell id="W44_wNCcNRFnUswYYEH9-10" value="HARQ-ACK" style="ellipse;whiteSpace=wrap;html=1;align=center;newEdgeStyle={&quot;edgeStyle&quot;:&quot;entityRelationEdgeStyle&quot;,&quot;startArrow&quot;:&quot;none&quot;,&quot;endArrow&quot;:&quot;none&quot;,&quot;segment&quot;:10,&quot;curved&quot;:1,&quot;sourcePerimeterSpacing&quot;:0,&quot;targetPerimeterSpacing&quot;:0};treeFolding=1;treeMoving=1;" vertex="1" parent="1">
          <mxGeometry x="120" y="230" width="100" height="40" as="geometry" />
        </mxCell>
        <mxCell id="W44_wNCcNRFnUswYYEH9-26" value="PDSCH" style="whiteSpace=wrap;html=1;rounded=1;arcSize=50;align=center;verticalAlign=middle;strokeWidth=1;autosize=1;spacing=4;treeFolding=1;treeMoving=1;newEdgeStyle={&quot;edgeStyle&quot;:&quot;entityRelationEdgeStyle&quot;,&quot;startArrow&quot;:&quot;none&quot;,&quot;endArrow&quot;:&quot;none&quot;,&quot;segment&quot;:10,&quot;curved&quot;:1,&quot;sourcePerimeterSpacing&quot;:0,&quot;targetPerimeterSpacing&quot;:0};" vertex="1" parent="1">
          <mxGeometry x="280" y="130" width="90" height="30" as="geometry" />
        </mxCell>
        <mxCell id="W44_wNCcNRFnUswYYEH9-27" value="" style="edgeStyle=entityRelationEdgeStyle;startArrow=none;endArrow=none;segment=10;curved=1;sourcePerimeterSpacing=0;targetPerimeterSpacing=0;rounded=0;" edge="1" target="W44_wNCcNRFnUswYYEH9-26" parent="1">
          <mxGeometry relative="1" as="geometry">
            <mxPoint x="220" y="250" as="sourcePoint" />
            <Array as="points">
              <mxPoint x="220" y="250" />
            </Array>
          </mxGeometry>
        </mxCell>
        <mxCell id="W44_wNCcNRFnUswYYEH9-33" value="" style="edgeStyle=entityRelationEdgeStyle;rounded=0;orthogonalLoop=1;jettySize=auto;html=1;startArrow=none;endArrow=none;segment=10;curved=1;sourcePerimeterSpacing=0;targetPerimeterSpacing=0;" edge="1" parent="1" source="W44_wNCcNRFnUswYYEH9-30" target="W44_wNCcNRFnUswYYEH9-32">
          <mxGeometry relative="1" as="geometry" />
        </mxCell>
        <mxCell id="W44_wNCcNRFnUswYYEH9-35" value="" style="edgeStyle=entityRelationEdgeStyle;rounded=0;orthogonalLoop=1;jettySize=auto;html=1;startArrow=none;endArrow=none;segment=10;curved=1;sourcePerimeterSpacing=0;targetPerimeterSpacing=0;" edge="1" parent="1" source="W44_wNCcNRFnUswYYEH9-30" target="W44_wNCcNRFnUswYYEH9-34">
          <mxGeometry relative="1" as="geometry" />
        </mxCell>
        <mxCell id="W44_wNCcNRFnUswYYEH9-30" value="SPS PDSCH" style="whiteSpace=wrap;html=1;rounded=1;arcSize=50;align=center;verticalAlign=middle;strokeWidth=1;autosize=1;spacing=4;treeFolding=1;treeMoving=1;newEdgeStyle={&quot;edgeStyle&quot;:&quot;entityRelationEdgeStyle&quot;,&quot;startArrow&quot;:&quot;none&quot;,&quot;endArrow&quot;:&quot;none&quot;,&quot;segment&quot;:10,&quot;curved&quot;:1,&quot;sourcePerimeterSpacing&quot;:0,&quot;targetPerimeterSpacing&quot;:0};" vertex="1" parent="1">
          <mxGeometry x="280" y="360" width="110" height="30" as="geometry" />
        </mxCell>
        <mxCell id="W44_wNCcNRFnUswYYEH9-31" value="" style="edgeStyle=entityRelationEdgeStyle;startArrow=none;endArrow=none;segment=10;curved=1;sourcePerimeterSpacing=0;targetPerimeterSpacing=0;rounded=0;exitX=1;exitY=0.5;exitDx=0;exitDy=0;" edge="1" target="W44_wNCcNRFnUswYYEH9-30" parent="1" source="W44_wNCcNRFnUswYYEH9-10">
          <mxGeometry relative="1" as="geometry">
            <mxPoint x="230" y="250" as="sourcePoint" />
          </mxGeometry>
        </mxCell>
        <mxCell id="W44_wNCcNRFnUswYYEH9-32" value="激活的PDCCH" style="whiteSpace=wrap;html=1;rounded=1;arcSize=50;align=center;verticalAlign=middle;strokeWidth=1;autosize=1;spacing=4;treeFolding=1;treeMoving=1;newEdgeStyle={&quot;edgeStyle&quot;:&quot;entityRelationEdgeStyle&quot;,&quot;startArrow&quot;:&quot;none&quot;,&quot;endArrow&quot;:&quot;none&quot;,&quot;segment&quot;:10,&quot;curved&quot;:1,&quot;sourcePerimeterSpacing&quot;:0,&quot;targetPerimeterSpacing&quot;:0};" vertex="1" parent="1">
          <mxGeometry x="440" y="280" width="120" height="30" as="geometry" />
        </mxCell>
        <mxCell id="W44_wNCcNRFnUswYYEH9-34" value="PDSCH" style="whiteSpace=wrap;html=1;rounded=1;arcSize=50;align=center;verticalAlign=middle;strokeWidth=1;autosize=1;spacing=4;treeFolding=1;treeMoving=1;newEdgeStyle={&quot;edgeStyle&quot;:&quot;entityRelationEdgeStyle&quot;,&quot;startArrow&quot;:&quot;none&quot;,&quot;endArrow&quot;:&quot;none&quot;,&quot;segment&quot;:10,&quot;curved&quot;:1,&quot;sourcePerimeterSpacing&quot;:0,&quot;targetPerimeterSpacing&quot;:0};" vertex="1" parent="1">
          <mxGeometry x="440" y="360" width="90" height="30" as="geometry" />
        </mxCell>
        <mxCell id="W44_wNCcNRFnUswYYEH9-36" value="释放的PDCCH" style="whiteSpace=wrap;html=1;rounded=1;arcSize=50;align=center;verticalAlign=middle;strokeWidth=1;autosize=1;spacing=4;treeFolding=1;treeMoving=1;newEdgeStyle={&quot;edgeStyle&quot;:&quot;entityRelationEdgeStyle&quot;,&quot;startArrow&quot;:&quot;none&quot;,&quot;endArrow&quot;:&quot;none&quot;,&quot;segment&quot;:10,&quot;curved&quot;:1,&quot;sourcePerimeterSpacing&quot;:0,&quot;targetPerimeterSpacing&quot;:0};" vertex="1" parent="1">
          <mxGeometry x="440" y="438" width="120" height="30" as="geometry" />
        </mxCell>
        <mxCell id="W44_wNCcNRFnUswYYEH9-37" value="" style="edgeStyle=entityRelationEdgeStyle;startArrow=none;endArrow=none;segment=10;curved=1;sourcePerimeterSpacing=0;targetPerimeterSpacing=0;rounded=0;exitX=1;exitY=0.5;exitDx=0;exitDy=0;" edge="1" target="W44_wNCcNRFnUswYYEH9-36" parent="1" source="W44_wNCcNRFnUswYYEH9-30">
          <mxGeometry relative="1" as="geometry">
            <mxPoint x="400" y="480" as="sourcePoint" />
          </mxGeometry>
        </mxCell>
        <mxCell id="W44_wNCcNRFnUswYYEH9-43" value="1" style="ellipse;whiteSpace=wrap;html=1;aspect=fixed;fillColor=#ffe6cc;strokeColor=#d79b00;" vertex="1" parent="1">
          <mxGeometry x="380" y="135" width="20" height="20" as="geometry" />
        </mxCell>
        <mxCell id="W44_wNCcNRFnUswYYEH9-48" value="2" style="ellipse;whiteSpace=wrap;html=1;aspect=fixed;fillColor=#ffe6cc;strokeColor=#d79b00;" vertex="1" parent="1">
          <mxGeometry x="570" y="285" width="20" height="20" as="geometry" />
        </mxCell>
        <mxCell id="W44_wNCcNRFnUswYYEH9-49" value="3" style="ellipse;whiteSpace=wrap;html=1;aspect=fixed;fillColor=#ffe6cc;strokeColor=#d79b00;" vertex="1" parent="1">
          <mxGeometry x="570" y="365" width="20" height="20" as="geometry" />
        </mxCell>
        <mxCell id="W44_wNCcNRFnUswYYEH9-50" value="4" style="ellipse;whiteSpace=wrap;html=1;aspect=fixed;fillColor=#ffe6cc;strokeColor=#d79b00;" vertex="1" parent="1">
          <mxGeometry x="570" y="443" width="20" height="20" as="geometry" />
        </mxCell>
      </root>
    </mxGraphModel>
  </diagram>
  <diagram id="pO2Q7q86ZML7jvRMtg1M" name="dl-to-harq-feedback">
    <mxGraphModel dx="786" dy="1674" grid="1" gridSize="10" guides="1" tooltips="1" connect="1" arrows="1" fold="1" page="1" pageScale="1" pageWidth="827" pageHeight="1169" math="0" shadow="0">
      <root>
        <mxCell id="0" />
        <mxCell id="1" parent="0" />
        <mxCell id="XbM0FBx_KB5MUdPH8eGw-2" value="dl-to-harq-feedback" style="whiteSpace=wrap;html=1;rounded=1;arcSize=50;align=center;verticalAlign=middle;strokeWidth=1;autosize=1;spacing=4;treeFolding=1;treeMoving=1;newEdgeStyle={&quot;edgeStyle&quot;:&quot;entityRelationEdgeStyle&quot;,&quot;startArrow&quot;:&quot;none&quot;,&quot;endArrow&quot;:&quot;none&quot;,&quot;segment&quot;:10,&quot;curved&quot;:1,&quot;sourcePerimeterSpacing&quot;:0,&quot;targetPerimeterSpacing&quot;:0};" vertex="1" parent="1">
          <mxGeometry x="280" y="50" width="150" height="30" as="geometry" />
        </mxCell>
        <mxCell id="XbM0FBx_KB5MUdPH8eGw-6" value="DCI 1_0" style="whiteSpace=wrap;html=1;rounded=1;arcSize=50;align=center;verticalAlign=middle;strokeWidth=1;autosize=1;spacing=4;treeFolding=1;treeMoving=1;newEdgeStyle={&quot;edgeStyle&quot;:&quot;entityRelationEdgeStyle&quot;,&quot;startArrow&quot;:&quot;none&quot;,&quot;endArrow&quot;:&quot;none&quot;,&quot;segment&quot;:10,&quot;curved&quot;:1,&quot;sourcePerimeterSpacing&quot;:0,&quot;targetPerimeterSpacing&quot;:0};" vertex="1" parent="1">
          <mxGeometry x="485" y="-28" width="90" height="30" as="geometry" />
        </mxCell>
        <mxCell id="XbM0FBx_KB5MUdPH8eGw-7" value="" style="edgeStyle=entityRelationEdgeStyle;startArrow=none;endArrow=none;segment=10;curved=1;sourcePerimeterSpacing=0;targetPerimeterSpacing=0;rounded=0;exitX=1;exitY=0.5;exitDx=0;exitDy=0;" edge="1" target="XbM0FBx_KB5MUdPH8eGw-6" parent="1" source="XbM0FBx_KB5MUdPH8eGw-2">
          <mxGeometry relative="1" as="geometry">
            <mxPoint x="450" y="14" as="sourcePoint" />
          </mxGeometry>
        </mxCell>
        <mxCell id="XbM0FBx_KB5MUdPH8eGw-8" value="DCI 1_1" style="whiteSpace=wrap;html=1;rounded=1;arcSize=50;align=center;verticalAlign=middle;strokeWidth=1;autosize=1;spacing=4;treeFolding=1;treeMoving=1;newEdgeStyle={&quot;edgeStyle&quot;:&quot;entityRelationEdgeStyle&quot;,&quot;startArrow&quot;:&quot;none&quot;,&quot;endArrow&quot;:&quot;none&quot;,&quot;segment&quot;:10,&quot;curved&quot;:1,&quot;sourcePerimeterSpacing&quot;:0,&quot;targetPerimeterSpacing&quot;:0};" vertex="1" parent="1">
          <mxGeometry x="485" y="140" width="90" height="30" as="geometry" />
        </mxCell>
        <mxCell id="XbM0FBx_KB5MUdPH8eGw-9" value="" style="edgeStyle=entityRelationEdgeStyle;startArrow=none;endArrow=none;segment=10;curved=1;sourcePerimeterSpacing=0;targetPerimeterSpacing=0;rounded=0;exitX=1;exitY=0.5;exitDx=0;exitDy=0;" edge="1" target="XbM0FBx_KB5MUdPH8eGw-8" parent="1" source="XbM0FBx_KB5MUdPH8eGw-2">
          <mxGeometry relative="1" as="geometry">
            <mxPoint x="445" y="160" as="sourcePoint" />
          </mxGeometry>
        </mxCell>
        <mxCell id="XbM0FBx_KB5MUdPH8eGw-16" value="&lt;ul style=&quot;font-weight: 700; text-align: left;&quot;&gt;&lt;li&gt;&lt;span style=&quot;font-weight: normal;&quot;&gt;PDSCH to HARQ 反馈定时指示字段: 3bit&lt;/span&gt;&lt;/li&gt;&lt;li&gt;&lt;span style=&quot;font-weight: normal;&quot;&gt;索引表格[4, 5, 6, 7, 8, 9, 10, 11]，得到k&lt;/span&gt;&lt;/li&gt;&lt;li&gt;&lt;span style=&quot;font-weight: normal;&quot;&gt;K_offset来自高层参数k-OffsetCommon&lt;/span&gt;&lt;/li&gt;&lt;/ul&gt;" style="whiteSpace=wrap;html=1;shape=partialRectangle;top=0;left=0;bottom=1;right=0;points=[[0,1],[1,1]];fillColor=none;align=center;verticalAlign=bottom;routingCenterY=0.5;snapToPoint=1;recursiveResize=0;autosize=1;treeFolding=1;treeMoving=1;newEdgeStyle={&quot;edgeStyle&quot;:&quot;entityRelationEdgeStyle&quot;,&quot;startArrow&quot;:&quot;none&quot;,&quot;endArrow&quot;:&quot;none&quot;,&quot;segment&quot;:10,&quot;curved&quot;:1,&quot;sourcePerimeterSpacing&quot;:0,&quot;targetPerimeterSpacing&quot;:0};" vertex="1" parent="1">
          <mxGeometry x="655" y="-108" width="300" height="80" as="geometry" />
        </mxCell>
        <mxCell id="XbM0FBx_KB5MUdPH8eGw-17" value="" style="edgeStyle=entityRelationEdgeStyle;startArrow=none;endArrow=none;segment=10;curved=1;sourcePerimeterSpacing=0;targetPerimeterSpacing=0;rounded=0;exitX=1;exitY=0.5;exitDx=0;exitDy=0;exitPerimeter=0;" edge="1" target="XbM0FBx_KB5MUdPH8eGw-16" parent="1" source="XbM0FBx_KB5MUdPH8eGw-6">
          <mxGeometry relative="1" as="geometry">
            <mxPoint x="540" y="50" as="sourcePoint" />
          </mxGeometry>
        </mxCell>
        <mxCell id="XbM0FBx_KB5MUdPH8eGw-18" value="&lt;ul style=&quot;font-weight: 700; text-align: left;&quot;&gt;&lt;li&gt;&lt;span style=&quot;font-weight: normal;&quot;&gt;PDSCH to HARQ 反馈定时指示字段: 0bit&lt;/span&gt;&lt;/li&gt;&lt;li&gt;&lt;span style=&quot;font-weight: normal;&quot;&gt;索引表格dl-DataToUL-ACK：长度为1，得到k&lt;/span&gt;&lt;/li&gt;&lt;li&gt;&lt;span style=&quot;font-weight: normal;&quot;&gt;K_offset来自高层参数k-Offset&lt;/span&gt;&lt;/li&gt;&lt;/ul&gt;" style="whiteSpace=wrap;html=1;shape=partialRectangle;top=0;left=0;bottom=1;right=0;points=[[0,1],[1,1]];fillColor=none;align=center;verticalAlign=bottom;routingCenterY=0.5;snapToPoint=1;recursiveResize=0;autosize=1;treeFolding=1;treeMoving=1;newEdgeStyle={&quot;edgeStyle&quot;:&quot;entityRelationEdgeStyle&quot;,&quot;startArrow&quot;:&quot;none&quot;,&quot;endArrow&quot;:&quot;none&quot;,&quot;segment&quot;:10,&quot;curved&quot;:1,&quot;sourcePerimeterSpacing&quot;:0,&quot;targetPerimeterSpacing&quot;:0};" vertex="1" parent="1">
          <mxGeometry x="653" y="20" width="320" height="80" as="geometry" />
        </mxCell>
        <mxCell id="XbM0FBx_KB5MUdPH8eGw-19" value="" style="edgeStyle=entityRelationEdgeStyle;startArrow=none;endArrow=none;segment=10;curved=1;sourcePerimeterSpacing=0;targetPerimeterSpacing=0;rounded=0;exitX=1;exitY=0.5;exitDx=0;exitDy=0;" edge="1" target="XbM0FBx_KB5MUdPH8eGw-18" parent="1" source="XbM0FBx_KB5MUdPH8eGw-8">
          <mxGeometry relative="1" as="geometry">
            <mxPoint x="640" y="120" as="sourcePoint" />
          </mxGeometry>
        </mxCell>
        <mxCell id="XbM0FBx_KB5MUdPH8eGw-20" value="&lt;ul style=&quot;font-weight: 700; text-align: left;&quot;&gt;&lt;li&gt;&lt;span style=&quot;font-weight: normal;&quot;&gt;PDSCH to HARQ 反馈定时指示字段: 1/2/3bit&lt;/span&gt;&lt;/li&gt;&lt;li&gt;&lt;span style=&quot;font-weight: normal;&quot;&gt;索引表格dl-DataToUL-ACK&lt;/span&gt;&lt;/li&gt;&lt;li&gt;&lt;span style=&quot;font-weight: normal;&quot;&gt;mapping表格：表8.2.3-1（第4部分物理层控制过程）&lt;/span&gt;&lt;/li&gt;&lt;li&gt;&lt;span style=&quot;font-weight: normal;&quot;&gt;K_offset来自高层参数k-Offset&lt;/span&gt;&lt;/li&gt;&lt;/ul&gt;" style="whiteSpace=wrap;html=1;shape=partialRectangle;top=0;left=0;bottom=1;right=0;points=[[0,1],[1,1]];fillColor=none;align=center;verticalAlign=bottom;routingCenterY=0.5;snapToPoint=1;recursiveResize=0;autosize=1;treeFolding=1;treeMoving=1;newEdgeStyle={&quot;edgeStyle&quot;:&quot;entityRelationEdgeStyle&quot;,&quot;startArrow&quot;:&quot;none&quot;,&quot;endArrow&quot;:&quot;none&quot;,&quot;segment&quot;:10,&quot;curved&quot;:1,&quot;sourcePerimeterSpacing&quot;:0,&quot;targetPerimeterSpacing&quot;:0};" vertex="1" parent="1">
          <mxGeometry x="653" y="110" width="360" height="100" as="geometry" />
        </mxCell>
        <mxCell id="XbM0FBx_KB5MUdPH8eGw-21" value="" style="edgeStyle=entityRelationEdgeStyle;startArrow=none;endArrow=none;segment=10;curved=1;sourcePerimeterSpacing=0;targetPerimeterSpacing=0;rounded=0;exitX=1;exitY=0.5;exitDx=0;exitDy=0;" edge="1" target="XbM0FBx_KB5MUdPH8eGw-20" parent="1" source="XbM0FBx_KB5MUdPH8eGw-8">
          <mxGeometry relative="1" as="geometry">
            <mxPoint x="600" y="155" as="sourcePoint" />
          </mxGeometry>
        </mxCell>
        <mxCell id="QUPriuaKmgre3Ia_pp7G-1" value="n+k+K_offset*2^u" style="text;html=1;align=center;verticalAlign=middle;whiteSpace=wrap;rounded=0;" vertex="1" parent="1">
          <mxGeometry x="290" y="10" width="130" height="30" as="geometry" />
        </mxCell>
      </root>
    </mxGraphModel>
  </diagram>
  <diagram id="8KsNIL1BNYCcV3RQr-Kj" name="CSI-RS到CSI-Report的时序">
    <mxGraphModel dx="708" dy="348" grid="1" gridSize="10" guides="1" tooltips="1" connect="1" arrows="1" fold="1" page="1" pageScale="1" pageWidth="827" pageHeight="1169" math="0" shadow="0">
      <root>
        <mxCell id="0" />
        <mxCell id="1" parent="0" />
        <mxCell id="IkRCUDtvYCUCSW9cVeS4-1" value="" style="rounded=0;whiteSpace=wrap;html=1;" vertex="1" parent="1">
          <mxGeometry x="80" y="160" width="40" height="10" as="geometry" />
        </mxCell>
        <mxCell id="IkRCUDtvYCUCSW9cVeS4-2" value="" style="rounded=0;whiteSpace=wrap;html=1;" vertex="1" parent="1">
          <mxGeometry x="120" y="160" width="40" height="10" as="geometry" />
        </mxCell>
        <mxCell id="IkRCUDtvYCUCSW9cVeS4-3" value="" style="rounded=0;whiteSpace=wrap;html=1;" vertex="1" parent="1">
          <mxGeometry x="160" y="160" width="40" height="10" as="geometry" />
        </mxCell>
        <mxCell id="IkRCUDtvYCUCSW9cVeS4-4" value="" style="rounded=0;whiteSpace=wrap;html=1;" vertex="1" parent="1">
          <mxGeometry x="200" y="160" width="40" height="10" as="geometry" />
        </mxCell>
        <mxCell id="IkRCUDtvYCUCSW9cVeS4-5" value="n" style="text;html=1;align=center;verticalAlign=middle;whiteSpace=wrap;rounded=0;" vertex="1" parent="1">
          <mxGeometry x="80" y="140" width="40" height="10" as="geometry" />
        </mxCell>
        <mxCell id="IkRCUDtvYCUCSW9cVeS4-6" value="n+1" style="text;html=1;align=center;verticalAlign=middle;whiteSpace=wrap;rounded=0;" vertex="1" parent="1">
          <mxGeometry x="120" y="140" width="40" height="10" as="geometry" />
        </mxCell>
        <mxCell id="IkRCUDtvYCUCSW9cVeS4-7" value="n+2" style="text;html=1;align=center;verticalAlign=middle;whiteSpace=wrap;rounded=0;" vertex="1" parent="1">
          <mxGeometry x="160" y="140" width="40" height="10" as="geometry" />
        </mxCell>
        <mxCell id="IkRCUDtvYCUCSW9cVeS4-8" value="n+3" style="text;html=1;align=center;verticalAlign=middle;whiteSpace=wrap;rounded=0;" vertex="1" parent="1">
          <mxGeometry x="200" y="140" width="40" height="10" as="geometry" />
        </mxCell>
        <mxCell id="IkRCUDtvYCUCSW9cVeS4-9" value="" style="rounded=0;whiteSpace=wrap;html=1;" vertex="1" parent="1">
          <mxGeometry x="280" y="160" width="40" height="10" as="geometry" />
        </mxCell>
        <mxCell id="IkRCUDtvYCUCSW9cVeS4-12" value="" style="endArrow=none;dashed=1;html=1;dashPattern=1 3;strokeWidth=2;rounded=0;" edge="1" parent="1">
          <mxGeometry width="50" height="50" relative="1" as="geometry">
            <mxPoint x="250" y="165" as="sourcePoint" />
            <mxPoint x="270" y="165" as="targetPoint" />
          </mxGeometry>
        </mxCell>
        <mxCell id="IkRCUDtvYCUCSW9cVeS4-13" value="" style="rounded=0;whiteSpace=wrap;html=1;" vertex="1" parent="1">
          <mxGeometry x="320" y="160" width="40" height="10" as="geometry" />
        </mxCell>
        <mxCell id="IkRCUDtvYCUCSW9cVeS4-14" value="" style="rounded=0;whiteSpace=wrap;html=1;" vertex="1" parent="1">
          <mxGeometry x="360" y="160" width="40" height="10" as="geometry" />
        </mxCell>
        <mxCell id="IkRCUDtvYCUCSW9cVeS4-15" value="m-d-1" style="text;html=1;align=center;verticalAlign=middle;whiteSpace=wrap;rounded=0;" vertex="1" parent="1">
          <mxGeometry x="360" y="140" width="40" height="10" as="geometry" />
        </mxCell>
        <mxCell id="IkRCUDtvYCUCSW9cVeS4-16" value="m-d-2" style="text;html=1;align=center;verticalAlign=middle;whiteSpace=wrap;rounded=0;" vertex="1" parent="1">
          <mxGeometry x="320" y="140" width="40" height="10" as="geometry" />
        </mxCell>
        <mxCell id="IkRCUDtvYCUCSW9cVeS4-17" value="m-d-3" style="text;html=1;align=center;verticalAlign=middle;whiteSpace=wrap;rounded=0;" vertex="1" parent="1">
          <mxGeometry x="280" y="140" width="40" height="10" as="geometry" />
        </mxCell>
        <mxCell id="IkRCUDtvYCUCSW9cVeS4-18" value="&lt;p style=&quot;margin-top: 0px;&quot;&gt;&lt;/p&gt;&lt;ul&gt;&lt;li&gt;&lt;font face=&quot;Courier New&quot;&gt;slot n:&amp;nbsp; &amp;nbsp;有CSI-RS&lt;/font&gt;&lt;/li&gt;&lt;li&gt;&lt;font face=&quot;Courier New&quot;&gt;slot n+1: 下CSI测量的配置&lt;/font&gt;&lt;/li&gt;&lt;li&gt;&lt;font face=&quot;Courier New&quot;&gt;slot n+2: FPGA执行CSI测量，并保存结果&lt;/font&gt;&lt;/li&gt;&lt;li&gt;&lt;font face=&quot;Courier New&quot;&gt;slot n+3: 获取CSI测量结果，平滑&lt;/font&gt;&lt;/li&gt;&lt;li&gt;&lt;font face=&quot;Courier New&quot;&gt;slot m:&amp;nbsp; &amp;nbsp;要发送CSI-Report的时机&lt;/font&gt;&lt;/li&gt;&lt;li&gt;&lt;font face=&quot;Courier New&quot;&gt;d: 双向传播时延的整slot的部分&lt;/font&gt;&lt;/li&gt;&lt;li&gt;&lt;font face=&quot;Courier New&quot;&gt;slot m-d-2: 下CSI-Report的配置&lt;/font&gt;&lt;/li&gt;&lt;li&gt;要想在CSI-Report里包含最新的CSI测量的结果，就必须满足 m-d-2 &amp;gt; n+3，即 m-n &amp;gt; 5+d&lt;/li&gt;&lt;/ul&gt;&lt;p&gt;&lt;/p&gt;" style="text;html=1;whiteSpace=wrap;overflow=hidden;rounded=0;" vertex="1" parent="1">
          <mxGeometry x="50" y="180" width="520" height="150" as="geometry" />
        </mxCell>
        <mxCell id="IkRCUDtvYCUCSW9cVeS4-19" value="" style="rounded=0;whiteSpace=wrap;html=1;" vertex="1" parent="1">
          <mxGeometry x="400" y="160" width="40" height="10" as="geometry" />
        </mxCell>
        <mxCell id="IkRCUDtvYCUCSW9cVeS4-20" value="m-d" style="text;html=1;align=center;verticalAlign=middle;whiteSpace=wrap;rounded=0;" vertex="1" parent="1">
          <mxGeometry x="400" y="140" width="40" height="10" as="geometry" />
        </mxCell>
      </root>
    </mxGraphModel>
  </diagram>
  <diagram id="i8t3q7LRdM9Ce2DSh4fG" name="5G 信道">
    <mxGraphModel dx="1026" dy="505" grid="1" gridSize="10" guides="1" tooltips="1" connect="1" arrows="1" fold="1" page="1" pageScale="1" pageWidth="827" pageHeight="1169" math="1" shadow="0">
      <root>
        <mxCell id="0" />
        <mxCell id="1" parent="0" />
        <mxCell id="kGKcTW_rVO7HAyaMlCHH-1" value="PCCH" style="text;html=1;align=center;verticalAlign=middle;whiteSpace=wrap;rounded=0;shadow=0;" vertex="1" parent="1">
          <mxGeometry x="160" y="120" width="60" height="30" as="geometry" />
        </mxCell>
        <mxCell id="kGKcTW_rVO7HAyaMlCHH-2" value="BCCH" style="text;html=1;align=center;verticalAlign=middle;whiteSpace=wrap;rounded=0;" vertex="1" parent="1">
          <mxGeometry x="240" y="120" width="60" height="30" as="geometry" />
        </mxCell>
        <mxCell id="kGKcTW_rVO7HAyaMlCHH-3" value="CCCH" style="text;html=1;align=center;verticalAlign=middle;whiteSpace=wrap;rounded=0;" vertex="1" parent="1">
          <mxGeometry x="330" y="120" width="60" height="30" as="geometry" />
        </mxCell>
        <mxCell id="kGKcTW_rVO7HAyaMlCHH-4" value="DCCH" style="text;html=1;align=center;verticalAlign=middle;whiteSpace=wrap;rounded=0;" vertex="1" parent="1">
          <mxGeometry x="414" y="120" width="60" height="30" as="geometry" />
        </mxCell>
        <mxCell id="kGKcTW_rVO7HAyaMlCHH-5" value="DTCH" style="text;html=1;align=center;verticalAlign=middle;whiteSpace=wrap;rounded=0;" vertex="1" parent="1">
          <mxGeometry x="490" y="120" width="60" height="30" as="geometry" />
        </mxCell>
        <mxCell id="kGKcTW_rVO7HAyaMlCHH-7" value="PCH" style="text;html=1;align=center;verticalAlign=middle;whiteSpace=wrap;rounded=0;shadow=0;" vertex="1" parent="1">
          <mxGeometry x="160" y="210" width="60" height="30" as="geometry" />
        </mxCell>
        <mxCell id="kGKcTW_rVO7HAyaMlCHH-8" value="BCH" style="text;html=1;align=center;verticalAlign=middle;whiteSpace=wrap;rounded=0;" vertex="1" parent="1">
          <mxGeometry x="240" y="210" width="60" height="30" as="geometry" />
        </mxCell>
        <mxCell id="kGKcTW_rVO7HAyaMlCHH-9" value="DL-SCH" style="text;html=1;align=center;verticalAlign=middle;whiteSpace=wrap;rounded=0;" vertex="1" parent="1">
          <mxGeometry x="414" y="210" width="60" height="30" as="geometry" />
        </mxCell>
        <mxCell id="kGKcTW_rVO7HAyaMlCHH-10" value="" style="endArrow=classic;html=1;rounded=0;exitX=0.5;exitY=1;exitDx=0;exitDy=0;entryX=0.5;entryY=0;entryDx=0;entryDy=0;" edge="1" parent="1" source="kGKcTW_rVO7HAyaMlCHH-1" target="kGKcTW_rVO7HAyaMlCHH-7">
          <mxGeometry width="50" height="50" relative="1" as="geometry">
            <mxPoint x="240" y="370" as="sourcePoint" />
            <mxPoint x="290" y="320" as="targetPoint" />
          </mxGeometry>
        </mxCell>
        <mxCell id="kGKcTW_rVO7HAyaMlCHH-11" value="" style="endArrow=classic;html=1;rounded=0;exitX=0.5;exitY=1;exitDx=0;exitDy=0;entryX=0.5;entryY=0;entryDx=0;entryDy=0;" edge="1" parent="1" source="kGKcTW_rVO7HAyaMlCHH-2" target="kGKcTW_rVO7HAyaMlCHH-8">
          <mxGeometry width="50" height="50" relative="1" as="geometry">
            <mxPoint x="200" y="160" as="sourcePoint" />
            <mxPoint x="200" y="220" as="targetPoint" />
          </mxGeometry>
        </mxCell>
        <mxCell id="kGKcTW_rVO7HAyaMlCHH-12" value="" style="endArrow=classic;html=1;rounded=0;exitX=0.5;exitY=1;exitDx=0;exitDy=0;entryX=0.25;entryY=0;entryDx=0;entryDy=0;" edge="1" parent="1" source="kGKcTW_rVO7HAyaMlCHH-3" target="kGKcTW_rVO7HAyaMlCHH-9">
          <mxGeometry width="50" height="50" relative="1" as="geometry">
            <mxPoint x="390" y="230" as="sourcePoint" />
            <mxPoint x="440" y="180" as="targetPoint" />
          </mxGeometry>
        </mxCell>
        <mxCell id="kGKcTW_rVO7HAyaMlCHH-13" value="" style="endArrow=classic;html=1;rounded=0;exitX=0.5;exitY=1;exitDx=0;exitDy=0;entryX=0.5;entryY=0;entryDx=0;entryDy=0;" edge="1" parent="1" source="kGKcTW_rVO7HAyaMlCHH-4" target="kGKcTW_rVO7HAyaMlCHH-9">
          <mxGeometry width="50" height="50" relative="1" as="geometry">
            <mxPoint x="540" y="230" as="sourcePoint" />
            <mxPoint x="590" y="180" as="targetPoint" />
          </mxGeometry>
        </mxCell>
        <mxCell id="kGKcTW_rVO7HAyaMlCHH-14" value="" style="endArrow=classic;html=1;rounded=0;exitX=0.5;exitY=1;exitDx=0;exitDy=0;entryX=0.75;entryY=0;entryDx=0;entryDy=0;" edge="1" parent="1" source="kGKcTW_rVO7HAyaMlCHH-5" target="kGKcTW_rVO7HAyaMlCHH-9">
          <mxGeometry width="50" height="50" relative="1" as="geometry">
            <mxPoint x="570" y="250" as="sourcePoint" />
            <mxPoint x="620" y="200" as="targetPoint" />
          </mxGeometry>
        </mxCell>
        <mxCell id="kGKcTW_rVO7HAyaMlCHH-15" value="PBCH" style="text;html=1;align=center;verticalAlign=middle;whiteSpace=wrap;rounded=0;" vertex="1" parent="1">
          <mxGeometry x="240" y="321" width="60" height="30" as="geometry" />
        </mxCell>
        <mxCell id="kGKcTW_rVO7HAyaMlCHH-16" value="PDSCH" style="text;html=1;align=center;verticalAlign=middle;whiteSpace=wrap;rounded=0;" vertex="1" parent="1">
          <mxGeometry x="414" y="321" width="60" height="30" as="geometry" />
        </mxCell>
        <mxCell id="kGKcTW_rVO7HAyaMlCHH-17" value="" style="endArrow=classic;html=1;rounded=0;exitX=0.5;exitY=1;exitDx=0;exitDy=0;entryX=0.5;entryY=0;entryDx=0;entryDy=0;" edge="1" parent="1" source="kGKcTW_rVO7HAyaMlCHH-8" target="kGKcTW_rVO7HAyaMlCHH-15">
          <mxGeometry width="50" height="50" relative="1" as="geometry">
            <mxPoint x="290" y="410" as="sourcePoint" />
            <mxPoint x="340" y="360" as="targetPoint" />
          </mxGeometry>
        </mxCell>
        <mxCell id="kGKcTW_rVO7HAyaMlCHH-18" value="" style="endArrow=classic;html=1;rounded=0;exitX=0.5;exitY=1;exitDx=0;exitDy=0;" edge="1" parent="1" source="kGKcTW_rVO7HAyaMlCHH-9" target="kGKcTW_rVO7HAyaMlCHH-16">
          <mxGeometry width="50" height="50" relative="1" as="geometry">
            <mxPoint x="520" y="390" as="sourcePoint" />
            <mxPoint x="570" y="340" as="targetPoint" />
          </mxGeometry>
        </mxCell>
        <mxCell id="kGKcTW_rVO7HAyaMlCHH-20" value="" style="endArrow=classic;html=1;rounded=0;entryX=0.25;entryY=0;entryDx=0;entryDy=0;exitX=0.5;exitY=1;exitDx=0;exitDy=0;" edge="1" parent="1" source="kGKcTW_rVO7HAyaMlCHH-7" target="kGKcTW_rVO7HAyaMlCHH-16">
          <mxGeometry width="50" height="50" relative="1" as="geometry">
            <mxPoint x="190" y="260" as="sourcePoint" />
            <mxPoint x="380" y="360" as="targetPoint" />
          </mxGeometry>
        </mxCell>
        <mxCell id="kGKcTW_rVO7HAyaMlCHH-21" value="PDCCH" style="text;html=1;align=center;verticalAlign=middle;whiteSpace=wrap;rounded=0;" vertex="1" parent="1">
          <mxGeometry x="490" y="321" width="60" height="30" as="geometry" />
        </mxCell>
        <mxCell id="kGKcTW_rVO7HAyaMlCHH-22" value="DCI" style="text;html=1;align=center;verticalAlign=middle;whiteSpace=wrap;rounded=0;" vertex="1" parent="1">
          <mxGeometry x="490" y="260" width="60" height="30" as="geometry" />
        </mxCell>
        <mxCell id="kGKcTW_rVO7HAyaMlCHH-23" value="" style="endArrow=classic;html=1;rounded=0;exitX=0.5;exitY=1;exitDx=0;exitDy=0;" edge="1" parent="1" source="kGKcTW_rVO7HAyaMlCHH-22" target="kGKcTW_rVO7HAyaMlCHH-21">
          <mxGeometry width="50" height="50" relative="1" as="geometry">
            <mxPoint x="640" y="330" as="sourcePoint" />
            <mxPoint x="690" y="280" as="targetPoint" />
          </mxGeometry>
        </mxCell>
        <mxCell id="kGKcTW_rVO7HAyaMlCHH-24" value="CSI-RS" style="text;html=1;align=center;verticalAlign=middle;whiteSpace=wrap;rounded=0;" vertex="1" parent="1">
          <mxGeometry x="570" y="321" width="60" height="30" as="geometry" />
        </mxCell>
        <mxCell id="kGKcTW_rVO7HAyaMlCHH-25" value="PSS/SSS" style="text;html=1;align=center;verticalAlign=middle;whiteSpace=wrap;rounded=0;" vertex="1" parent="1">
          <mxGeometry x="160" y="321" width="60" height="30" as="geometry" />
        </mxCell>
        <mxCell id="kGKcTW_rVO7HAyaMlCHH-30" value="Downlink Channel" style="swimlane;whiteSpace=wrap;html=1;" vertex="1" parent="1">
          <mxGeometry x="130" y="70" width="510" height="300" as="geometry" />
        </mxCell>
        <mxCell id="kGKcTW_rVO7HAyaMlCHH-31" value="CCCH" style="text;html=1;align=center;verticalAlign=middle;whiteSpace=wrap;rounded=0;" vertex="1" parent="1">
          <mxGeometry x="174" y="510" width="60" height="30" as="geometry" />
        </mxCell>
        <mxCell id="kGKcTW_rVO7HAyaMlCHH-32" value="DCCH" style="text;html=1;align=center;verticalAlign=middle;whiteSpace=wrap;rounded=0;" vertex="1" parent="1">
          <mxGeometry x="258" y="510" width="60" height="30" as="geometry" />
        </mxCell>
        <mxCell id="kGKcTW_rVO7HAyaMlCHH-33" value="DTCH" style="text;html=1;align=center;verticalAlign=middle;whiteSpace=wrap;rounded=0;" vertex="1" parent="1">
          <mxGeometry x="334" y="510" width="60" height="30" as="geometry" />
        </mxCell>
        <mxCell id="kGKcTW_rVO7HAyaMlCHH-34" value="UL-SCH" style="text;html=1;align=center;verticalAlign=middle;whiteSpace=wrap;rounded=0;" vertex="1" parent="1">
          <mxGeometry x="258" y="600" width="60" height="30" as="geometry" />
        </mxCell>
        <mxCell id="kGKcTW_rVO7HAyaMlCHH-35" value="" style="endArrow=classic;html=1;rounded=0;exitX=0.5;exitY=1;exitDx=0;exitDy=0;entryX=0.25;entryY=0;entryDx=0;entryDy=0;" edge="1" parent="1" source="kGKcTW_rVO7HAyaMlCHH-31" target="kGKcTW_rVO7HAyaMlCHH-34">
          <mxGeometry width="50" height="50" relative="1" as="geometry">
            <mxPoint x="234" y="620" as="sourcePoint" />
            <mxPoint x="284" y="570" as="targetPoint" />
          </mxGeometry>
        </mxCell>
        <mxCell id="kGKcTW_rVO7HAyaMlCHH-36" value="" style="endArrow=classic;html=1;rounded=0;exitX=0.5;exitY=1;exitDx=0;exitDy=0;entryX=0.5;entryY=0;entryDx=0;entryDy=0;" edge="1" parent="1" source="kGKcTW_rVO7HAyaMlCHH-32" target="kGKcTW_rVO7HAyaMlCHH-34">
          <mxGeometry width="50" height="50" relative="1" as="geometry">
            <mxPoint x="384" y="620" as="sourcePoint" />
            <mxPoint x="434" y="570" as="targetPoint" />
          </mxGeometry>
        </mxCell>
        <mxCell id="kGKcTW_rVO7HAyaMlCHH-37" value="" style="endArrow=classic;html=1;rounded=0;exitX=0.5;exitY=1;exitDx=0;exitDy=0;entryX=0.75;entryY=0;entryDx=0;entryDy=0;" edge="1" parent="1" source="kGKcTW_rVO7HAyaMlCHH-33" target="kGKcTW_rVO7HAyaMlCHH-34">
          <mxGeometry width="50" height="50" relative="1" as="geometry">
            <mxPoint x="414" y="640" as="sourcePoint" />
            <mxPoint x="464" y="590" as="targetPoint" />
          </mxGeometry>
        </mxCell>
        <mxCell id="kGKcTW_rVO7HAyaMlCHH-38" value="PUSCH" style="text;html=1;align=center;verticalAlign=middle;whiteSpace=wrap;rounded=0;" vertex="1" parent="1">
          <mxGeometry x="258" y="711" width="60" height="30" as="geometry" />
        </mxCell>
        <mxCell id="kGKcTW_rVO7HAyaMlCHH-39" value="" style="endArrow=classic;html=1;rounded=0;exitX=0.5;exitY=1;exitDx=0;exitDy=0;" edge="1" parent="1" source="kGKcTW_rVO7HAyaMlCHH-34" target="kGKcTW_rVO7HAyaMlCHH-38">
          <mxGeometry width="50" height="50" relative="1" as="geometry">
            <mxPoint x="364" y="780" as="sourcePoint" />
            <mxPoint x="414" y="730" as="targetPoint" />
          </mxGeometry>
        </mxCell>
        <mxCell id="kGKcTW_rVO7HAyaMlCHH-40" value="PUCCH" style="text;html=1;align=center;verticalAlign=middle;whiteSpace=wrap;rounded=0;" vertex="1" parent="1">
          <mxGeometry x="334" y="711" width="60" height="30" as="geometry" />
        </mxCell>
        <mxCell id="kGKcTW_rVO7HAyaMlCHH-41" value="UCI" style="text;html=1;align=center;verticalAlign=middle;whiteSpace=wrap;rounded=0;" vertex="1" parent="1">
          <mxGeometry x="334" y="650" width="60" height="30" as="geometry" />
        </mxCell>
        <mxCell id="kGKcTW_rVO7HAyaMlCHH-42" value="" style="endArrow=classic;html=1;rounded=0;exitX=0.5;exitY=1;exitDx=0;exitDy=0;" edge="1" parent="1" source="kGKcTW_rVO7HAyaMlCHH-41" target="kGKcTW_rVO7HAyaMlCHH-40">
          <mxGeometry width="50" height="50" relative="1" as="geometry">
            <mxPoint x="484" y="720" as="sourcePoint" />
            <mxPoint x="534" y="670" as="targetPoint" />
          </mxGeometry>
        </mxCell>
        <mxCell id="kGKcTW_rVO7HAyaMlCHH-43" value="PRACH" style="text;html=1;align=center;verticalAlign=middle;whiteSpace=wrap;rounded=0;" vertex="1" parent="1">
          <mxGeometry x="414" y="711" width="60" height="30" as="geometry" />
        </mxCell>
        <mxCell id="kGKcTW_rVO7HAyaMlCHH-44" value="RACH" style="text;html=1;align=center;verticalAlign=middle;whiteSpace=wrap;rounded=0;" vertex="1" parent="1">
          <mxGeometry x="414" y="600" width="60" height="30" as="geometry" />
        </mxCell>
        <mxCell id="kGKcTW_rVO7HAyaMlCHH-45" value="" style="endArrow=classic;html=1;rounded=0;exitX=0.5;exitY=1;exitDx=0;exitDy=0;entryX=0.5;entryY=0;entryDx=0;entryDy=0;" edge="1" parent="1" source="kGKcTW_rVO7HAyaMlCHH-44" target="kGKcTW_rVO7HAyaMlCHH-43">
          <mxGeometry width="50" height="50" relative="1" as="geometry">
            <mxPoint x="510" y="650" as="sourcePoint" />
            <mxPoint x="560" y="600" as="targetPoint" />
          </mxGeometry>
        </mxCell>
        <mxCell id="kGKcTW_rVO7HAyaMlCHH-46" value="SRS" style="text;html=1;align=center;verticalAlign=middle;whiteSpace=wrap;rounded=0;" vertex="1" parent="1">
          <mxGeometry x="490" y="711" width="60" height="30" as="geometry" />
        </mxCell>
        <mxCell id="kGKcTW_rVO7HAyaMlCHH-47" value="Uplink Channel" style="swimlane;whiteSpace=wrap;html=1;" vertex="1" parent="1">
          <mxGeometry x="160" y="450" width="420" height="310" as="geometry" />
        </mxCell>
      </root>
    </mxGraphModel>
  </diagram>
  <diagram id="rTe91o58IPHdFYiUje0H" name="第 5 页">
    <mxGraphModel dx="1026" dy="537" grid="1" gridSize="10" guides="1" tooltips="1" connect="1" arrows="1" fold="1" page="1" pageScale="1" pageWidth="827" pageHeight="1169" math="0" shadow="0">
      <root>
        <mxCell id="0" />
        <mxCell id="1" parent="0" />
        <mxCell id="gHaXZjLqtV85odn_9_IZ-1" value="" style="edgeStyle=entityRelationEdgeStyle;rounded=0;orthogonalLoop=1;jettySize=auto;html=1;startArrow=none;endArrow=none;segment=10;curved=1;sourcePerimeterSpacing=0;targetPerimeterSpacing=0;" edge="1" parent="1" source="gHaXZjLqtV85odn_9_IZ-3" target="gHaXZjLqtV85odn_9_IZ-4">
          <mxGeometry relative="1" as="geometry" />
        </mxCell>
        <mxCell id="gHaXZjLqtV85odn_9_IZ-2" value="" style="edgeStyle=entityRelationEdgeStyle;rounded=0;orthogonalLoop=1;jettySize=auto;html=1;startArrow=none;endArrow=none;segment=10;curved=1;sourcePerimeterSpacing=0;targetPerimeterSpacing=0;" edge="1" parent="1" source="gHaXZjLqtV85odn_9_IZ-3" target="gHaXZjLqtV85odn_9_IZ-4">
          <mxGeometry relative="1" as="geometry" />
        </mxCell>
        <mxCell id="gHaXZjLqtV85odn_9_IZ-3" value="PUCCH" style="ellipse;whiteSpace=wrap;html=1;align=center;newEdgeStyle={&quot;edgeStyle&quot;:&quot;entityRelationEdgeStyle&quot;,&quot;startArrow&quot;:&quot;none&quot;,&quot;endArrow&quot;:&quot;none&quot;,&quot;segment&quot;:10,&quot;curved&quot;:1,&quot;sourcePerimeterSpacing&quot;:0,&quot;targetPerimeterSpacing&quot;:0};treeFolding=1;treeMoving=1;" vertex="1" parent="1">
          <mxGeometry x="120" y="210" width="100" height="40" as="geometry" />
        </mxCell>
        <mxCell id="gHaXZjLqtV85odn_9_IZ-4" value="one-slot-PUCCH" style="whiteSpace=wrap;html=1;rounded=1;arcSize=50;align=center;verticalAlign=middle;strokeWidth=1;autosize=1;spacing=4;treeFolding=1;treeMoving=1;newEdgeStyle={&quot;edgeStyle&quot;:&quot;entityRelationEdgeStyle&quot;,&quot;startArrow&quot;:&quot;none&quot;,&quot;endArrow&quot;:&quot;none&quot;,&quot;segment&quot;:10,&quot;curved&quot;:1,&quot;sourcePerimeterSpacing&quot;:0,&quot;targetPerimeterSpacing&quot;:0};" vertex="1" parent="1">
          <mxGeometry x="274" y="80" width="130" height="30" as="geometry" />
        </mxCell>
        <mxCell id="gHaXZjLqtV85odn_9_IZ-5" value="" style="edgeStyle=entityRelationEdgeStyle;startArrow=none;endArrow=none;segment=10;curved=1;sourcePerimeterSpacing=0;targetPerimeterSpacing=0;rounded=0;exitX=1;exitY=0.5;exitDx=0;exitDy=0;" edge="1" parent="1" target="gHaXZjLqtV85odn_9_IZ-4" source="gHaXZjLqtV85odn_9_IZ-3">
          <mxGeometry relative="1" as="geometry">
            <mxPoint x="220" y="250" as="sourcePoint" />
            <Array as="points">
              <mxPoint x="220" y="250" />
            </Array>
          </mxGeometry>
        </mxCell>
        <mxCell id="gHaXZjLqtV85odn_9_IZ-8" value="multi-slot-PUCCH" style="whiteSpace=wrap;html=1;rounded=1;arcSize=50;align=center;verticalAlign=middle;strokeWidth=1;autosize=1;spacing=4;treeFolding=1;treeMoving=1;newEdgeStyle={&quot;edgeStyle&quot;:&quot;entityRelationEdgeStyle&quot;,&quot;startArrow&quot;:&quot;none&quot;,&quot;endArrow&quot;:&quot;none&quot;,&quot;segment&quot;:10,&quot;curved&quot;:1,&quot;sourcePerimeterSpacing&quot;:0,&quot;targetPerimeterSpacing&quot;:0};" vertex="1" parent="1">
          <mxGeometry x="274" y="350" width="140" height="30" as="geometry" />
        </mxCell>
        <mxCell id="gHaXZjLqtV85odn_9_IZ-9" value="" style="edgeStyle=entityRelationEdgeStyle;startArrow=none;endArrow=none;segment=10;curved=1;sourcePerimeterSpacing=0;targetPerimeterSpacing=0;rounded=0;exitX=1;exitY=0.5;exitDx=0;exitDy=0;" edge="1" parent="1" source="gHaXZjLqtV85odn_9_IZ-3" target="gHaXZjLqtV85odn_9_IZ-8">
          <mxGeometry relative="1" as="geometry">
            <mxPoint x="230" y="250" as="sourcePoint" />
          </mxGeometry>
        </mxCell>
        <mxCell id="gHaXZjLqtV85odn_9_IZ-24" value="one-slot-UCI-on-PUSCH" style="whiteSpace=wrap;html=1;rounded=1;arcSize=50;align=center;verticalAlign=middle;strokeWidth=1;autosize=1;spacing=4;treeFolding=1;treeMoving=1;newEdgeStyle={&quot;edgeStyle&quot;:&quot;entityRelationEdgeStyle&quot;,&quot;startArrow&quot;:&quot;none&quot;,&quot;endArrow&quot;:&quot;none&quot;,&quot;segment&quot;:10,&quot;curved&quot;:1,&quot;sourcePerimeterSpacing&quot;:0,&quot;targetPerimeterSpacing&quot;:0};" vertex="1" parent="1">
          <mxGeometry x="440" y="160" width="180" height="30" as="geometry" />
        </mxCell>
        <mxCell id="gHaXZjLqtV85odn_9_IZ-25" value="one-slot-PUCCH" style="whiteSpace=wrap;html=1;rounded=1;arcSize=50;align=center;verticalAlign=middle;strokeWidth=1;autosize=1;spacing=4;treeFolding=1;treeMoving=1;newEdgeStyle={&quot;edgeStyle&quot;:&quot;entityRelationEdgeStyle&quot;,&quot;startArrow&quot;:&quot;none&quot;,&quot;endArrow&quot;:&quot;none&quot;,&quot;segment&quot;:10,&quot;curved&quot;:1,&quot;sourcePerimeterSpacing&quot;:0,&quot;targetPerimeterSpacing&quot;:0};" vertex="1" parent="1">
          <mxGeometry x="440" width="130" height="30" as="geometry" />
        </mxCell>
        <mxCell id="gHaXZjLqtV85odn_9_IZ-26" value="" style="edgeStyle=entityRelationEdgeStyle;startArrow=none;endArrow=none;segment=10;curved=1;sourcePerimeterSpacing=0;targetPerimeterSpacing=0;rounded=0;exitX=1;exitY=0.5;exitDx=0;exitDy=0;" edge="1" parent="1" source="gHaXZjLqtV85odn_9_IZ-4" target="gHaXZjLqtV85odn_9_IZ-25">
          <mxGeometry relative="1" as="geometry">
            <mxPoint x="230" y="240" as="sourcePoint" />
            <Array as="points">
              <mxPoint x="350" y="160" />
              <mxPoint x="230" y="260" />
            </Array>
            <mxPoint x="284" y="105" as="targetPoint" />
          </mxGeometry>
        </mxCell>
        <mxCell id="gHaXZjLqtV85odn_9_IZ-27" value="" style="edgeStyle=entityRelationEdgeStyle;startArrow=none;endArrow=none;segment=10;curved=1;sourcePerimeterSpacing=0;targetPerimeterSpacing=0;rounded=0;exitX=1;exitY=0.5;exitDx=0;exitDy=0;entryX=0;entryY=0.5;entryDx=0;entryDy=0;" edge="1" parent="1" source="gHaXZjLqtV85odn_9_IZ-4" target="gHaXZjLqtV85odn_9_IZ-24">
          <mxGeometry relative="1" as="geometry">
            <mxPoint x="230" y="240" as="sourcePoint" />
            <Array as="points">
              <mxPoint x="230" y="260" />
            </Array>
            <mxPoint x="284" y="105" as="targetPoint" />
          </mxGeometry>
        </mxCell>
      </root>
    </mxGraphModel>
  </diagram>
  <diagram id="vwucZ1GUQuHhT4YVoNZk" name="第 6 页">
    <mxGraphModel dx="1282" dy="565" grid="1" gridSize="10" guides="1" tooltips="1" connect="1" arrows="1" fold="1" page="1" pageScale="1" pageWidth="827" pageHeight="1169" math="0" shadow="0">
      <root>
        <mxCell id="0" />
        <mxCell id="1" parent="0" />
        <mxCell id="gOhZzlmw7B6otI2Bi4pM-8" style="edgeStyle=orthogonalEdgeStyle;rounded=0;orthogonalLoop=1;jettySize=auto;html=1;exitX=1;exitY=0.5;exitDx=0;exitDy=0;entryX=0;entryY=0.5;entryDx=0;entryDy=0;" edge="1" parent="1" source="gOhZzlmw7B6otI2Bi4pM-1" target="gOhZzlmw7B6otI2Bi4pM-2">
          <mxGeometry relative="1" as="geometry" />
        </mxCell>
        <mxCell id="gOhZzlmw7B6otI2Bi4pM-1" value="平方" style="whiteSpace=wrap;html=1;" vertex="1" parent="1">
          <mxGeometry x="180" y="230" width="120" height="60" as="geometry" />
        </mxCell>
        <mxCell id="gOhZzlmw7B6otI2Bi4pM-9" style="edgeStyle=orthogonalEdgeStyle;rounded=0;orthogonalLoop=1;jettySize=auto;html=1;exitX=1;exitY=0.5;exitDx=0;exitDy=0;entryX=0;entryY=0.5;entryDx=0;entryDy=0;" edge="1" parent="1" source="gOhZzlmw7B6otI2Bi4pM-2" target="gOhZzlmw7B6otI2Bi4pM-3">
          <mxGeometry relative="1" as="geometry" />
        </mxCell>
        <mxCell id="gOhZzlmw7B6otI2Bi4pM-2" value="窄带滤波器" style="whiteSpace=wrap;html=1;" vertex="1" parent="1">
          <mxGeometry x="360" y="230" width="120" height="60" as="geometry" />
        </mxCell>
        <mxCell id="gOhZzlmw7B6otI2Bi4pM-10" style="edgeStyle=orthogonalEdgeStyle;rounded=0;orthogonalLoop=1;jettySize=auto;html=1;exitX=1;exitY=0.5;exitDx=0;exitDy=0;entryX=0;entryY=0.5;entryDx=0;entryDy=0;" edge="1" parent="1" source="gOhZzlmw7B6otI2Bi4pM-3" target="gOhZzlmw7B6otI2Bi4pM-4">
          <mxGeometry relative="1" as="geometry" />
        </mxCell>
        <mxCell id="gOhZzlmw7B6otI2Bi4pM-13" style="edgeStyle=orthogonalEdgeStyle;rounded=0;orthogonalLoop=1;jettySize=auto;html=1;exitX=0.5;exitY=1;exitDx=0;exitDy=0;entryX=0;entryY=0.5;entryDx=0;entryDy=0;" edge="1" parent="1" source="gOhZzlmw7B6otI2Bi4pM-3" target="gOhZzlmw7B6otI2Bi4pM-6">
          <mxGeometry relative="1" as="geometry" />
        </mxCell>
        <mxCell id="gOhZzlmw7B6otI2Bi4pM-3" value="" style="shape=sumEllipse;perimeter=ellipsePerimeter;whiteSpace=wrap;html=1;backgroundOutline=1;" vertex="1" parent="1">
          <mxGeometry x="550" y="240" width="40" height="40" as="geometry" />
        </mxCell>
        <mxCell id="gOhZzlmw7B6otI2Bi4pM-11" style="edgeStyle=orthogonalEdgeStyle;rounded=0;orthogonalLoop=1;jettySize=auto;html=1;exitX=1;exitY=0.5;exitDx=0;exitDy=0;entryX=1;entryY=0.5;entryDx=0;entryDy=0;" edge="1" parent="1" source="gOhZzlmw7B6otI2Bi4pM-4" target="gOhZzlmw7B6otI2Bi4pM-5">
          <mxGeometry relative="1" as="geometry" />
        </mxCell>
        <mxCell id="gOhZzlmw7B6otI2Bi4pM-4" value="环路滤波器" style="whiteSpace=wrap;html=1;" vertex="1" parent="1">
          <mxGeometry x="670" y="230" width="120" height="60" as="geometry" />
        </mxCell>
        <mxCell id="gOhZzlmw7B6otI2Bi4pM-12" style="edgeStyle=orthogonalEdgeStyle;rounded=0;orthogonalLoop=1;jettySize=auto;html=1;exitX=0;exitY=0.5;exitDx=0;exitDy=0;entryX=0.5;entryY=1;entryDx=0;entryDy=0;" edge="1" parent="1" source="gOhZzlmw7B6otI2Bi4pM-5" target="gOhZzlmw7B6otI2Bi4pM-3">
          <mxGeometry relative="1" as="geometry" />
        </mxCell>
        <mxCell id="gOhZzlmw7B6otI2Bi4pM-5" value="VCO" style="whiteSpace=wrap;html=1;" vertex="1" parent="1">
          <mxGeometry x="670" y="330" width="120" height="60" as="geometry" />
        </mxCell>
        <mxCell id="gOhZzlmw7B6otI2Bi4pM-14" style="edgeStyle=orthogonalEdgeStyle;rounded=0;orthogonalLoop=1;jettySize=auto;html=1;exitX=1;exitY=0.5;exitDx=0;exitDy=0;entryX=0;entryY=0.5;entryDx=0;entryDy=0;" edge="1" parent="1" source="gOhZzlmw7B6otI2Bi4pM-6" target="gOhZzlmw7B6otI2Bi4pM-7">
          <mxGeometry relative="1" as="geometry" />
        </mxCell>
        <mxCell id="gOhZzlmw7B6otI2Bi4pM-6" value="二分频" style="whiteSpace=wrap;html=1;" vertex="1" parent="1">
          <mxGeometry x="620" y="480" width="120" height="60" as="geometry" />
        </mxCell>
        <mxCell id="gOhZzlmw7B6otI2Bi4pM-15" style="edgeStyle=orthogonalEdgeStyle;rounded=0;orthogonalLoop=1;jettySize=auto;html=1;exitX=1;exitY=0.5;exitDx=0;exitDy=0;" edge="1" parent="1" source="gOhZzlmw7B6otI2Bi4pM-7">
          <mxGeometry relative="1" as="geometry">
            <mxPoint x="990" y="510" as="targetPoint" />
          </mxGeometry>
        </mxCell>
        <mxCell id="gOhZzlmw7B6otI2Bi4pM-7" value="移相器" style="whiteSpace=wrap;html=1;" vertex="1" parent="1">
          <mxGeometry x="820" y="480" width="120" height="60" as="geometry" />
        </mxCell>
        <mxCell id="gOhZzlmw7B6otI2Bi4pM-17" value="" style="edgeStyle=none;orthogonalLoop=1;jettySize=auto;html=1;rounded=0;" edge="1" parent="1">
          <mxGeometry width="100" relative="1" as="geometry">
            <mxPoint x="80" y="259.5" as="sourcePoint" />
            <mxPoint x="180" y="259.5" as="targetPoint" />
            <Array as="points" />
          </mxGeometry>
        </mxCell>
        <mxCell id="gOhZzlmw7B6otI2Bi4pM-18" value="2PSK信号" style="text;html=1;align=center;verticalAlign=middle;resizable=0;points=[];autosize=1;strokeColor=none;fillColor=none;" vertex="1" parent="1">
          <mxGeometry x="80" y="230" width="80" height="30" as="geometry" />
        </mxCell>
        <mxCell id="gOhZzlmw7B6otI2Bi4pM-20" value="鉴相器，锁相环" style="swimlane;shadow=0;" vertex="1" parent="1">
          <mxGeometry x="510" y="190" width="330" height="230" as="geometry" />
        </mxCell>
        <mxCell id="gOhZzlmw7B6otI2Bi4pM-21" value="恢复载波" style="text;html=1;align=center;verticalAlign=middle;resizable=0;points=[];autosize=1;strokeColor=none;fillColor=none;" vertex="1" parent="1">
          <mxGeometry x="940" y="480" width="70" height="30" as="geometry" />
        </mxCell>
      </root>
    </mxGraphModel>
  </diagram>
  <diagram id="yAworyYBNeqqy3FeTKfh" name="第 7 页">
    <mxGraphModel dx="1282" dy="565" grid="1" gridSize="10" guides="1" tooltips="1" connect="1" arrows="1" fold="1" page="1" pageScale="1" pageWidth="827" pageHeight="1169" math="0" shadow="0">
      <root>
        <mxCell id="0" />
        <mxCell id="1" parent="0" />
        <mxCell id="s9HRh-7JIx4njRaWoZHn-3" value="" style="edgeStyle=orthogonalEdgeStyle;rounded=0;orthogonalLoop=1;jettySize=auto;html=1;curved=0;" edge="1" parent="1" source="s9HRh-7JIx4njRaWoZHn-1" target="s9HRh-7JIx4njRaWoZHn-2">
          <mxGeometry relative="1" as="geometry">
            <Array as="points">
              <mxPoint x="270" y="110" />
              <mxPoint x="270" y="110" />
            </Array>
          </mxGeometry>
        </mxCell>
        <mxCell id="s9HRh-7JIx4njRaWoZHn-1" value="UE L3/L2" style="shape=umlLifeline;perimeter=lifelinePerimeter;whiteSpace=wrap;html=1;container=1;dropTarget=0;collapsible=0;recursiveResize=0;outlineConnect=0;portConstraint=eastwest;newEdgeStyle={&quot;curved&quot;:0,&quot;rounded&quot;:0};" vertex="1" parent="1">
          <mxGeometry x="110" y="20" width="100" height="460" as="geometry" />
        </mxCell>
        <mxCell id="s9HRh-7JIx4njRaWoZHn-5" value="" style="edgeStyle=orthogonalEdgeStyle;rounded=0;orthogonalLoop=1;jettySize=auto;html=1;curved=0;" edge="1" parent="1">
          <mxGeometry relative="1" as="geometry">
            <mxPoint x="339.5" y="141" as="sourcePoint" />
            <mxPoint x="519.5" y="141" as="targetPoint" />
            <Array as="points">
              <mxPoint x="400" y="141" />
              <mxPoint x="400" y="141" />
            </Array>
          </mxGeometry>
        </mxCell>
        <mxCell id="s9HRh-7JIx4njRaWoZHn-2" value="UE L1-C" style="shape=umlLifeline;perimeter=lifelinePerimeter;whiteSpace=wrap;html=1;container=1;dropTarget=0;collapsible=0;recursiveResize=0;outlineConnect=0;portConstraint=eastwest;newEdgeStyle={&quot;curved&quot;:0,&quot;rounded&quot;:0};" vertex="1" parent="1">
          <mxGeometry x="290" y="20" width="100" height="460" as="geometry" />
        </mxCell>
        <mxCell id="s9HRh-7JIx4njRaWoZHn-4" value="UE L1-D" style="shape=umlLifeline;perimeter=lifelinePerimeter;whiteSpace=wrap;html=1;container=1;dropTarget=0;collapsible=0;recursiveResize=0;outlineConnect=0;portConstraint=eastwest;newEdgeStyle={&quot;curved&quot;:0,&quot;rounded&quot;:0};" vertex="1" parent="1">
          <mxGeometry x="470" y="20" width="100" height="460" as="geometry" />
        </mxCell>
        <mxCell id="s9HRh-7JIx4njRaWoZHn-11" value="" style="html=1;points=[[0,0,0,0,5],[0,1,0,0,-5],[1,0,0,0,5],[1,1,0,0,-5]];perimeter=orthogonalPerimeter;outlineConnect=0;targetShapes=umlLifeline;portConstraint=eastwest;newEdgeStyle={&quot;curved&quot;:0,&quot;rounded&quot;:0};" vertex="1" parent="s9HRh-7JIx4njRaWoZHn-4">
          <mxGeometry x="45" y="130" width="10" height="80" as="geometry" />
        </mxCell>
        <mxCell id="s9HRh-7JIx4njRaWoZHn-28" value="" style="html=1;points=[[0,0,0,0,5],[0,1,0,0,-5],[1,0,0,0,5],[1,1,0,0,-5]];perimeter=orthogonalPerimeter;outlineConnect=0;targetShapes=umlLifeline;portConstraint=eastwest;newEdgeStyle={&quot;curved&quot;:0,&quot;rounded&quot;:0};" vertex="1" parent="s9HRh-7JIx4njRaWoZHn-4">
          <mxGeometry x="45" y="260" width="10" height="80" as="geometry" />
        </mxCell>
        <mxCell id="s9HRh-7JIx4njRaWoZHn-6" value="RU" style="shape=umlLifeline;perimeter=lifelinePerimeter;whiteSpace=wrap;html=1;container=1;dropTarget=0;collapsible=0;recursiveResize=0;outlineConnect=0;portConstraint=eastwest;newEdgeStyle={&quot;curved&quot;:0,&quot;rounded&quot;:0};" vertex="1" parent="1">
          <mxGeometry x="650" y="20" width="100" height="460" as="geometry" />
        </mxCell>
        <mxCell id="s9HRh-7JIx4njRaWoZHn-8" value="cell search req" style="text;html=1;align=center;verticalAlign=middle;resizable=0;points=[];autosize=1;strokeColor=none;fillColor=none;" vertex="1" parent="1">
          <mxGeometry x="200" y="78" width="100" height="30" as="geometry" />
        </mxCell>
        <mxCell id="s9HRh-7JIx4njRaWoZHn-10" value="SS search req" style="text;html=1;align=center;verticalAlign=middle;resizable=0;points=[];autosize=1;strokeColor=none;fillColor=none;" vertex="1" parent="1">
          <mxGeometry x="380" y="113" width="100" height="30" as="geometry" />
        </mxCell>
        <mxCell id="s9HRh-7JIx4njRaWoZHn-12" value="SS search" style="text;html=1;align=center;verticalAlign=middle;resizable=0;points=[];autosize=1;strokeColor=none;fillColor=none;" vertex="1" parent="1">
          <mxGeometry x="519" y="175" width="80" height="30" as="geometry" />
        </mxCell>
        <mxCell id="s9HRh-7JIx4njRaWoZHn-23" value="SS search cnf" style="text;html=1;align=center;verticalAlign=middle;resizable=0;points=[];autosize=1;strokeColor=none;fillColor=none;" vertex="1" parent="1">
          <mxGeometry x="380" y="181" width="100" height="30" as="geometry" />
        </mxCell>
        <mxCell id="s9HRh-7JIx4njRaWoZHn-24" value="" style="edgeStyle=none;orthogonalLoop=1;jettySize=auto;html=1;rounded=0;" edge="1" parent="1" source="s9HRh-7JIx4njRaWoZHn-4" target="s9HRh-7JIx4njRaWoZHn-2">
          <mxGeometry width="100" relative="1" as="geometry">
            <mxPoint x="475" y="220" as="sourcePoint" />
            <mxPoint x="385" y="220" as="targetPoint" />
            <Array as="points">
              <mxPoint x="430" y="210" />
            </Array>
          </mxGeometry>
        </mxCell>
        <mxCell id="s9HRh-7JIx4njRaWoZHn-25" value="" style="edgeStyle=none;orthogonalLoop=1;jettySize=auto;html=1;rounded=0;" edge="1" parent="1">
          <mxGeometry width="100" relative="1" as="geometry">
            <mxPoint x="340" y="270" as="sourcePoint" />
            <mxPoint x="520" y="270" as="targetPoint" />
            <Array as="points" />
          </mxGeometry>
        </mxCell>
        <mxCell id="s9HRh-7JIx4njRaWoZHn-27" value="PBCH decode req" style="text;html=1;align=center;verticalAlign=middle;resizable=0;points=[];autosize=1;strokeColor=none;fillColor=none;" vertex="1" parent="1">
          <mxGeometry x="370" y="240" width="120" height="30" as="geometry" />
        </mxCell>
        <mxCell id="s9HRh-7JIx4njRaWoZHn-29" value="PBCH decode" style="text;html=1;align=center;verticalAlign=middle;resizable=0;points=[];autosize=1;strokeColor=none;fillColor=none;" vertex="1" parent="1">
          <mxGeometry x="519" y="298" width="100" height="30" as="geometry" />
        </mxCell>
        <mxCell id="s9HRh-7JIx4njRaWoZHn-30" value="" style="edgeStyle=none;orthogonalLoop=1;jettySize=auto;html=1;rounded=0;" edge="1" parent="1">
          <mxGeometry width="100" relative="1" as="geometry">
            <mxPoint x="519" y="340" as="sourcePoint" />
            <mxPoint x="338.5" y="340" as="targetPoint" />
            <Array as="points" />
          </mxGeometry>
        </mxCell>
        <mxCell id="s9HRh-7JIx4njRaWoZHn-31" value="PBCH decode cnf" style="text;html=1;align=center;verticalAlign=middle;resizable=0;points=[];autosize=1;strokeColor=none;fillColor=none;" vertex="1" parent="1">
          <mxGeometry x="370" y="310" width="120" height="30" as="geometry" />
        </mxCell>
        <mxCell id="s9HRh-7JIx4njRaWoZHn-32" value="" style="edgeStyle=none;orthogonalLoop=1;jettySize=auto;html=1;rounded=0;" edge="1" parent="1">
          <mxGeometry width="100" relative="1" as="geometry">
            <mxPoint x="339.5" y="429" as="sourcePoint" />
            <mxPoint x="159.5" y="429" as="targetPoint" />
            <Array as="points">
              <mxPoint x="260" y="429" />
            </Array>
          </mxGeometry>
        </mxCell>
        <mxCell id="s9HRh-7JIx4njRaWoZHn-33" value="cell search cnf" style="text;html=1;align=center;verticalAlign=middle;resizable=0;points=[];autosize=1;strokeColor=none;fillColor=none;" vertex="1" parent="1">
          <mxGeometry x="210" y="399" width="100" height="30" as="geometry" />
        </mxCell>
        <mxCell id="cfX2w7UZaGVR9M5QW6LE-1" value="" style="edgeStyle=none;orthogonalLoop=1;jettySize=auto;html=1;rounded=0;" edge="1" parent="1" source="s9HRh-7JIx4njRaWoZHn-2" target="s9HRh-7JIx4njRaWoZHn-4">
          <mxGeometry width="100" relative="1" as="geometry">
            <mxPoint x="390" y="420" as="sourcePoint" />
            <mxPoint x="490" y="420" as="targetPoint" />
            <Array as="points">
              <mxPoint x="440" y="400" />
            </Array>
          </mxGeometry>
        </mxCell>
        <mxCell id="cfX2w7UZaGVR9M5QW6LE-2" value="timing adjust ind" style="text;html=1;align=center;verticalAlign=middle;resizable=0;points=[];autosize=1;strokeColor=none;fillColor=none;" vertex="1" parent="1">
          <mxGeometry x="375" y="369" width="110" height="30" as="geometry" />
        </mxCell>
      </root>
    </mxGraphModel>
  </diagram>
  <diagram id="HheBaAa_jIKXfxsEqsAd" name="第 8 页">
    <mxGraphModel dx="1282" dy="565" grid="1" gridSize="10" guides="1" tooltips="1" connect="1" arrows="1" fold="1" page="1" pageScale="1" pageWidth="827" pageHeight="1169" math="0" shadow="0">
      <root>
        <mxCell id="0" />
        <mxCell id="1" parent="0" />
        <mxCell id="Bap8cttCgFRQpamNslcW-3" value="" style="edgeStyle=orthogonalEdgeStyle;rounded=0;orthogonalLoop=1;jettySize=auto;html=1;curved=0;" edge="1" parent="1" source="Bap8cttCgFRQpamNslcW-1" target="Bap8cttCgFRQpamNslcW-2">
          <mxGeometry relative="1" as="geometry">
            <Array as="points">
              <mxPoint x="290" y="110" />
              <mxPoint x="290" y="110" />
            </Array>
          </mxGeometry>
        </mxCell>
        <mxCell id="Bap8cttCgFRQpamNslcW-1" value="UE L3/L2" style="shape=umlLifeline;perimeter=lifelinePerimeter;whiteSpace=wrap;html=1;container=1;dropTarget=0;collapsible=0;recursiveResize=0;outlineConnect=0;portConstraint=eastwest;newEdgeStyle={&quot;curved&quot;:0,&quot;rounded&quot;:0};" vertex="1" parent="1">
          <mxGeometry x="150" y="20" width="100" height="460" as="geometry" />
        </mxCell>
        <mxCell id="Bap8cttCgFRQpamNslcW-2" value="UE L1-C" style="shape=umlLifeline;perimeter=lifelinePerimeter;whiteSpace=wrap;html=1;container=1;dropTarget=0;collapsible=0;recursiveResize=0;outlineConnect=0;portConstraint=eastwest;newEdgeStyle={&quot;curved&quot;:0,&quot;rounded&quot;:0};" vertex="1" parent="1">
          <mxGeometry x="330" y="20" width="100" height="460" as="geometry" />
        </mxCell>
        <mxCell id="Bap8cttCgFRQpamNslcW-4" value="UE L1-D" style="shape=umlLifeline;perimeter=lifelinePerimeter;whiteSpace=wrap;html=1;container=1;dropTarget=0;collapsible=0;recursiveResize=0;outlineConnect=0;portConstraint=eastwest;newEdgeStyle={&quot;curved&quot;:0,&quot;rounded&quot;:0};" vertex="1" parent="1">
          <mxGeometry x="510" y="20" width="100" height="460" as="geometry" />
        </mxCell>
        <mxCell id="Bap8cttCgFRQpamNslcW-6" value="RU" style="shape=umlLifeline;perimeter=lifelinePerimeter;whiteSpace=wrap;html=1;container=1;dropTarget=0;collapsible=0;recursiveResize=0;outlineConnect=0;portConstraint=eastwest;newEdgeStyle={&quot;curved&quot;:0,&quot;rounded&quot;:0};" vertex="1" parent="1">
          <mxGeometry x="690" y="20" width="100" height="460" as="geometry" />
        </mxCell>
        <mxCell id="Bap8cttCgFRQpamNslcW-8" value="get SIB1 req" style="text;html=1;align=center;verticalAlign=middle;resizable=0;points=[];autosize=1;strokeColor=none;fillColor=none;" vertex="1" parent="1">
          <mxGeometry x="240" y="80" width="90" height="30" as="geometry" />
        </mxCell>
        <mxCell id="Bap8cttCgFRQpamNslcW-9" value="" style="edgeStyle=orthogonalEdgeStyle;rounded=0;orthogonalLoop=1;jettySize=auto;html=1;curved=0;" edge="1" parent="1">
          <mxGeometry relative="1" as="geometry">
            <mxPoint x="380" y="150" as="sourcePoint" />
            <mxPoint x="560" y="150" as="targetPoint" />
            <Array as="points">
              <mxPoint x="470" y="150" />
              <mxPoint x="470" y="150" />
            </Array>
          </mxGeometry>
        </mxCell>
        <mxCell id="Bap8cttCgFRQpamNslcW-10" value="PDCCH req" style="text;html=1;align=center;verticalAlign=middle;resizable=0;points=[];autosize=1;strokeColor=none;fillColor=none;" vertex="1" parent="1">
          <mxGeometry x="430" y="120" width="90" height="30" as="geometry" />
        </mxCell>
        <mxCell id="Bap8cttCgFRQpamNslcW-11" value="" style="edgeStyle=none;orthogonalLoop=1;jettySize=auto;html=1;rounded=0;" edge="1" parent="1">
          <mxGeometry width="100" relative="1" as="geometry">
            <mxPoint x="559.5" y="198" as="sourcePoint" />
            <mxPoint x="379.5" y="198" as="targetPoint" />
            <Array as="points">
              <mxPoint x="480" y="198" />
            </Array>
          </mxGeometry>
        </mxCell>
        <mxCell id="Bap8cttCgFRQpamNslcW-12" value="PDCCH cnf" style="text;html=1;align=center;verticalAlign=middle;resizable=0;points=[];autosize=1;strokeColor=none;fillColor=none;" vertex="1" parent="1">
          <mxGeometry x="430" y="168" width="90" height="30" as="geometry" />
        </mxCell>
        <mxCell id="Bap8cttCgFRQpamNslcW-13" value="" style="edgeStyle=orthogonalEdgeStyle;rounded=0;orthogonalLoop=1;jettySize=auto;html=1;curved=0;" edge="1" parent="1">
          <mxGeometry relative="1" as="geometry">
            <mxPoint x="380" y="260" as="sourcePoint" />
            <mxPoint x="560" y="260" as="targetPoint" />
            <Array as="points">
              <mxPoint x="470" y="260" />
              <mxPoint x="470" y="260" />
            </Array>
          </mxGeometry>
        </mxCell>
        <mxCell id="Bap8cttCgFRQpamNslcW-14" value="PDSCH req" style="text;html=1;align=center;verticalAlign=middle;resizable=0;points=[];autosize=1;strokeColor=none;fillColor=none;" vertex="1" parent="1">
          <mxGeometry x="430" y="230" width="90" height="30" as="geometry" />
        </mxCell>
        <mxCell id="Bap8cttCgFRQpamNslcW-15" value="" style="edgeStyle=none;orthogonalLoop=1;jettySize=auto;html=1;rounded=0;" edge="1" parent="1">
          <mxGeometry width="100" relative="1" as="geometry">
            <mxPoint x="560" y="310" as="sourcePoint" />
            <mxPoint x="380" y="310" as="targetPoint" />
            <Array as="points">
              <mxPoint x="480" y="310" />
            </Array>
          </mxGeometry>
        </mxCell>
        <mxCell id="Bap8cttCgFRQpamNslcW-16" value="PDSCH cnf" style="text;html=1;align=center;verticalAlign=middle;resizable=0;points=[];autosize=1;strokeColor=none;fillColor=none;" vertex="1" parent="1">
          <mxGeometry x="435" y="280" width="80" height="30" as="geometry" />
        </mxCell>
        <mxCell id="Bap8cttCgFRQpamNslcW-17" value="" style="edgeStyle=none;orthogonalLoop=1;jettySize=auto;html=1;rounded=0;" edge="1" parent="1">
          <mxGeometry width="100" relative="1" as="geometry">
            <mxPoint x="380" y="350" as="sourcePoint" />
            <mxPoint x="200" y="350" as="targetPoint" />
            <Array as="points">
              <mxPoint x="300" y="350" />
            </Array>
          </mxGeometry>
        </mxCell>
        <mxCell id="Bap8cttCgFRQpamNslcW-18" value="DL-SCH data ind" style="text;html=1;align=center;verticalAlign=middle;resizable=0;points=[];autosize=1;strokeColor=none;fillColor=none;" vertex="1" parent="1">
          <mxGeometry x="240" y="320" width="110" height="30" as="geometry" />
        </mxCell>
        <mxCell id="Bap8cttCgFRQpamNslcW-19" value="" style="edgeStyle=orthogonalEdgeStyle;rounded=0;orthogonalLoop=1;jettySize=auto;html=1;curved=0;" edge="1" parent="1">
          <mxGeometry relative="1" as="geometry">
            <mxPoint x="200" y="400" as="sourcePoint" />
            <mxPoint x="380" y="400" as="targetPoint" />
            <Array as="points">
              <mxPoint x="290" y="400" />
              <mxPoint x="290" y="400" />
            </Array>
          </mxGeometry>
        </mxCell>
        <mxCell id="Bap8cttCgFRQpamNslcW-20" value="common channel config req" style="text;html=1;align=center;verticalAlign=middle;resizable=0;points=[];autosize=1;strokeColor=none;fillColor=none;" vertex="1" parent="1">
          <mxGeometry x="210" y="370" width="170" height="30" as="geometry" />
        </mxCell>
        <mxCell id="Bap8cttCgFRQpamNslcW-21" value="" style="edgeStyle=none;orthogonalLoop=1;jettySize=auto;html=1;rounded=0;" edge="1" parent="1">
          <mxGeometry width="100" relative="1" as="geometry">
            <mxPoint x="380" y="450" as="sourcePoint" />
            <mxPoint x="200" y="450" as="targetPoint" />
            <Array as="points">
              <mxPoint x="300" y="450" />
            </Array>
          </mxGeometry>
        </mxCell>
        <mxCell id="Bap8cttCgFRQpamNslcW-22" value="common channel config cnf" style="text;html=1;align=center;verticalAlign=middle;resizable=0;points=[];autosize=1;strokeColor=none;fillColor=none;" vertex="1" parent="1">
          <mxGeometry x="210" y="420" width="170" height="30" as="geometry" />
        </mxCell>
      </root>
    </mxGraphModel>
  </diagram>
  <diagram id="cOmjf3IOsXXsnH1vLuBG" name="第 9 页">
    <mxGraphModel dx="1466" dy="716" grid="1" gridSize="10" guides="1" tooltips="1" connect="1" arrows="1" fold="1" page="1" pageScale="1" pageWidth="827" pageHeight="1169" math="0" shadow="0">
      <root>
        <mxCell id="0" />
        <mxCell id="1" parent="0" />
        <mxCell id="KxYDIV3KxkoXM3FQEn5J-10" style="edgeStyle=orthogonalEdgeStyle;rounded=0;orthogonalLoop=1;jettySize=auto;html=1;exitX=0.5;exitY=1;exitDx=0;exitDy=0;entryX=0;entryY=0.5;entryDx=0;entryDy=0;" edge="1" parent="1" source="KxYDIV3KxkoXM3FQEn5J-1" target="KxYDIV3KxkoXM3FQEn5J-6">
          <mxGeometry relative="1" as="geometry" />
        </mxCell>
        <mxCell id="KxYDIV3KxkoXM3FQEn5J-17" style="edgeStyle=orthogonalEdgeStyle;rounded=0;orthogonalLoop=1;jettySize=auto;html=1;exitX=0.5;exitY=1;exitDx=0;exitDy=0;entryX=0.5;entryY=0;entryDx=0;entryDy=0;" edge="1" parent="1" source="KxYDIV3KxkoXM3FQEn5J-1" target="KxYDIV3KxkoXM3FQEn5J-16">
          <mxGeometry relative="1" as="geometry" />
        </mxCell>
        <mxCell id="KxYDIV3KxkoXM3FQEn5J-1" value="BCCH" style="whiteSpace=wrap;html=1;" vertex="1" parent="1">
          <mxGeometry x="20" y="30" width="120" height="60" as="geometry" />
        </mxCell>
        <mxCell id="KxYDIV3KxkoXM3FQEn5J-7" style="edgeStyle=orthogonalEdgeStyle;rounded=0;orthogonalLoop=1;jettySize=auto;html=1;exitX=0.5;exitY=1;exitDx=0;exitDy=0;entryX=0.25;entryY=0;entryDx=0;entryDy=0;" edge="1" parent="1" source="KxYDIV3KxkoXM3FQEn5J-2" target="KxYDIV3KxkoXM3FQEn5J-6">
          <mxGeometry relative="1" as="geometry" />
        </mxCell>
        <mxCell id="KxYDIV3KxkoXM3FQEn5J-2" value="CCCH" style="whiteSpace=wrap;html=1;" vertex="1" parent="1">
          <mxGeometry x="180" y="30" width="120" height="60" as="geometry" />
        </mxCell>
        <mxCell id="KxYDIV3KxkoXM3FQEn5J-8" style="edgeStyle=orthogonalEdgeStyle;rounded=0;orthogonalLoop=1;jettySize=auto;html=1;exitX=0.5;exitY=1;exitDx=0;exitDy=0;entryX=0.5;entryY=0;entryDx=0;entryDy=0;" edge="1" parent="1" source="KxYDIV3KxkoXM3FQEn5J-3" target="KxYDIV3KxkoXM3FQEn5J-6">
          <mxGeometry relative="1" as="geometry" />
        </mxCell>
        <mxCell id="KxYDIV3KxkoXM3FQEn5J-3" value="DCCH" style="whiteSpace=wrap;html=1;" vertex="1" parent="1">
          <mxGeometry x="340" y="30" width="120" height="60" as="geometry" />
        </mxCell>
        <mxCell id="KxYDIV3KxkoXM3FQEn5J-9" style="edgeStyle=orthogonalEdgeStyle;rounded=0;orthogonalLoop=1;jettySize=auto;html=1;exitX=0.5;exitY=1;exitDx=0;exitDy=0;entryX=0.75;entryY=0;entryDx=0;entryDy=0;" edge="1" parent="1" source="KxYDIV3KxkoXM3FQEn5J-4" target="KxYDIV3KxkoXM3FQEn5J-6">
          <mxGeometry relative="1" as="geometry" />
        </mxCell>
        <mxCell id="KxYDIV3KxkoXM3FQEn5J-4" value="DTCH" style="whiteSpace=wrap;html=1;" vertex="1" parent="1">
          <mxGeometry x="510" y="30" width="120" height="60" as="geometry" />
        </mxCell>
        <mxCell id="KxYDIV3KxkoXM3FQEn5J-12" style="edgeStyle=orthogonalEdgeStyle;rounded=0;orthogonalLoop=1;jettySize=auto;html=1;exitX=0.5;exitY=1;exitDx=0;exitDy=0;entryX=0.5;entryY=0;entryDx=0;entryDy=0;" edge="1" parent="1" source="KxYDIV3KxkoXM3FQEn5J-5" target="KxYDIV3KxkoXM3FQEn5J-11">
          <mxGeometry relative="1" as="geometry" />
        </mxCell>
        <mxCell id="KxYDIV3KxkoXM3FQEn5J-5" value="PCCH" style="whiteSpace=wrap;html=1;" vertex="1" parent="1">
          <mxGeometry x="670" y="30" width="120" height="60" as="geometry" />
        </mxCell>
        <mxCell id="KxYDIV3KxkoXM3FQEn5J-14" style="edgeStyle=orthogonalEdgeStyle;rounded=0;orthogonalLoop=1;jettySize=auto;html=1;exitX=0.5;exitY=1;exitDx=0;exitDy=0;entryX=0.5;entryY=0;entryDx=0;entryDy=0;" edge="1" parent="1" source="KxYDIV3KxkoXM3FQEn5J-6" target="KxYDIV3KxkoXM3FQEn5J-13">
          <mxGeometry relative="1" as="geometry" />
        </mxCell>
        <mxCell id="KxYDIV3KxkoXM3FQEn5J-6" value="DL-SCH" style="whiteSpace=wrap;html=1;" vertex="1" parent="1">
          <mxGeometry x="340" y="190" width="120" height="60" as="geometry" />
        </mxCell>
        <mxCell id="KxYDIV3KxkoXM3FQEn5J-15" style="edgeStyle=orthogonalEdgeStyle;rounded=0;orthogonalLoop=1;jettySize=auto;html=1;exitX=0.5;exitY=1;exitDx=0;exitDy=0;entryX=0.75;entryY=0;entryDx=0;entryDy=0;" edge="1" parent="1" source="KxYDIV3KxkoXM3FQEn5J-11" target="KxYDIV3KxkoXM3FQEn5J-13">
          <mxGeometry relative="1" as="geometry" />
        </mxCell>
        <mxCell id="KxYDIV3KxkoXM3FQEn5J-11" value="PCH" style="whiteSpace=wrap;html=1;" vertex="1" parent="1">
          <mxGeometry x="670" y="190" width="120" height="60" as="geometry" />
        </mxCell>
        <mxCell id="KxYDIV3KxkoXM3FQEn5J-13" value="PDSCH" style="whiteSpace=wrap;html=1;" vertex="1" parent="1">
          <mxGeometry x="340" y="320" width="120" height="60" as="geometry" />
        </mxCell>
        <mxCell id="KxYDIV3KxkoXM3FQEn5J-16" value="PBCH" style="whiteSpace=wrap;html=1;" vertex="1" parent="1">
          <mxGeometry x="20" y="320" width="120" height="60" as="geometry" />
        </mxCell>
        <mxCell id="KxYDIV3KxkoXM3FQEn5J-18" value="PDCCH" style="whiteSpace=wrap;html=1;" vertex="1" parent="1">
          <mxGeometry x="827" y="320" width="120" height="60" as="geometry" />
        </mxCell>
        <mxCell id="KxYDIV3KxkoXM3FQEn5J-19" value="PSS/SSS" style="whiteSpace=wrap;html=1;" vertex="1" parent="1">
          <mxGeometry x="990" y="320" width="120" height="60" as="geometry" />
        </mxCell>
        <mxCell id="KxYDIV3KxkoXM3FQEn5J-20" value="CSI-RS" style="whiteSpace=wrap;html=1;" vertex="1" parent="1">
          <mxGeometry x="1150" y="320" width="120" height="60" as="geometry" />
        </mxCell>
        <mxCell id="KxYDIV3KxkoXM3FQEn5J-22" style="edgeStyle=orthogonalEdgeStyle;rounded=0;orthogonalLoop=1;jettySize=auto;html=1;exitX=0.5;exitY=1;exitDx=0;exitDy=0;entryX=0.5;entryY=0;entryDx=0;entryDy=0;" edge="1" parent="1" source="KxYDIV3KxkoXM3FQEn5J-21" target="KxYDIV3KxkoXM3FQEn5J-18">
          <mxGeometry relative="1" as="geometry" />
        </mxCell>
        <mxCell id="KxYDIV3KxkoXM3FQEn5J-21" value="DCI" style="whiteSpace=wrap;html=1;" vertex="1" parent="1">
          <mxGeometry x="828" y="250" width="117" height="30" as="geometry" />
        </mxCell>
        <mxCell id="KxYDIV3KxkoXM3FQEn5J-23" value="SRS" style="whiteSpace=wrap;html=1;" vertex="1" parent="1">
          <mxGeometry x="1360" y="430" width="120" height="60" as="geometry" />
        </mxCell>
        <mxCell id="KxYDIV3KxkoXM3FQEn5J-24" value="PUCCH" style="whiteSpace=wrap;html=1;" vertex="1" parent="1">
          <mxGeometry x="1703" y="430" width="120" height="60" as="geometry" />
        </mxCell>
        <mxCell id="KxYDIV3KxkoXM3FQEn5J-25" value="PUSCH" style="whiteSpace=wrap;html=1;" vertex="1" parent="1">
          <mxGeometry x="1993" y="430" width="120" height="60" as="geometry" />
        </mxCell>
        <mxCell id="KxYDIV3KxkoXM3FQEn5J-30" style="edgeStyle=orthogonalEdgeStyle;rounded=0;orthogonalLoop=1;jettySize=auto;html=1;exitX=0.5;exitY=0;exitDx=0;exitDy=0;entryX=0.25;entryY=1;entryDx=0;entryDy=0;" edge="1" parent="1" source="KxYDIV3KxkoXM3FQEn5J-26" target="KxYDIV3KxkoXM3FQEn5J-29">
          <mxGeometry relative="1" as="geometry" />
        </mxCell>
        <mxCell id="KxYDIV3KxkoXM3FQEn5J-26" value="DTCH" style="whiteSpace=wrap;html=1;" vertex="1" parent="1">
          <mxGeometry x="1833" y="734" width="120" height="60" as="geometry" />
        </mxCell>
        <mxCell id="KxYDIV3KxkoXM3FQEn5J-31" style="edgeStyle=orthogonalEdgeStyle;rounded=0;orthogonalLoop=1;jettySize=auto;html=1;exitX=0.5;exitY=0;exitDx=0;exitDy=0;entryX=0.5;entryY=1;entryDx=0;entryDy=0;" edge="1" parent="1" source="KxYDIV3KxkoXM3FQEn5J-27" target="KxYDIV3KxkoXM3FQEn5J-29">
          <mxGeometry relative="1" as="geometry" />
        </mxCell>
        <mxCell id="KxYDIV3KxkoXM3FQEn5J-27" value="DCCH" style="whiteSpace=wrap;html=1;" vertex="1" parent="1">
          <mxGeometry x="1993" y="734" width="120" height="60" as="geometry" />
        </mxCell>
        <mxCell id="KxYDIV3KxkoXM3FQEn5J-32" style="edgeStyle=orthogonalEdgeStyle;rounded=0;orthogonalLoop=1;jettySize=auto;html=1;exitX=0.5;exitY=0;exitDx=0;exitDy=0;entryX=0.75;entryY=1;entryDx=0;entryDy=0;" edge="1" parent="1" source="KxYDIV3KxkoXM3FQEn5J-28" target="KxYDIV3KxkoXM3FQEn5J-29">
          <mxGeometry relative="1" as="geometry" />
        </mxCell>
        <mxCell id="KxYDIV3KxkoXM3FQEn5J-28" value="CCCH" style="whiteSpace=wrap;html=1;" vertex="1" parent="1">
          <mxGeometry x="2153" y="734" width="120" height="60" as="geometry" />
        </mxCell>
        <mxCell id="KxYDIV3KxkoXM3FQEn5J-33" style="edgeStyle=orthogonalEdgeStyle;rounded=0;orthogonalLoop=1;jettySize=auto;html=1;exitX=0.5;exitY=0;exitDx=0;exitDy=0;entryX=0.5;entryY=1;entryDx=0;entryDy=0;" edge="1" parent="1" source="KxYDIV3KxkoXM3FQEn5J-29" target="KxYDIV3KxkoXM3FQEn5J-25">
          <mxGeometry relative="1" as="geometry" />
        </mxCell>
        <mxCell id="KxYDIV3KxkoXM3FQEn5J-29" value="UL-SCH" style="whiteSpace=wrap;html=1;" vertex="1" parent="1">
          <mxGeometry x="1993" y="596" width="120" height="60" as="geometry" />
        </mxCell>
        <mxCell id="KxYDIV3KxkoXM3FQEn5J-35" style="edgeStyle=orthogonalEdgeStyle;rounded=0;orthogonalLoop=1;jettySize=auto;html=1;exitX=0.5;exitY=0;exitDx=0;exitDy=0;entryX=0.5;entryY=1;entryDx=0;entryDy=0;" edge="1" parent="1" source="KxYDIV3KxkoXM3FQEn5J-34" target="KxYDIV3KxkoXM3FQEn5J-24">
          <mxGeometry relative="1" as="geometry" />
        </mxCell>
        <mxCell id="KxYDIV3KxkoXM3FQEn5J-34" value="UCI" style="whiteSpace=wrap;html=1;" vertex="1" parent="1">
          <mxGeometry x="1703" y="555" width="120" height="30" as="geometry" />
        </mxCell>
        <mxCell id="KxYDIV3KxkoXM3FQEn5J-37" value="PRACH" style="whiteSpace=wrap;html=1;" vertex="1" parent="1">
          <mxGeometry x="1534" y="430" width="120" height="60" as="geometry" />
        </mxCell>
        <mxCell id="KxYDIV3KxkoXM3FQEn5J-39" style="edgeStyle=orthogonalEdgeStyle;rounded=0;orthogonalLoop=1;jettySize=auto;html=1;exitX=0.5;exitY=0;exitDx=0;exitDy=0;entryX=0.5;entryY=1;entryDx=0;entryDy=0;" edge="1" parent="1" source="KxYDIV3KxkoXM3FQEn5J-38" target="KxYDIV3KxkoXM3FQEn5J-37">
          <mxGeometry relative="1" as="geometry" />
        </mxCell>
        <mxCell id="KxYDIV3KxkoXM3FQEn5J-38" value="RACH" style="whiteSpace=wrap;html=1;" vertex="1" parent="1">
          <mxGeometry x="1534" y="596" width="120" height="60" as="geometry" />
        </mxCell>
      </root>
    </mxGraphModel>
  </diagram>
  <diagram id="brLZVsCPBB6vCB8i0r2o" name="第 10 页">
    <mxGraphModel dx="1026" dy="501" grid="1" gridSize="10" guides="1" tooltips="1" connect="1" arrows="1" fold="1" page="1" pageScale="1" pageWidth="827" pageHeight="1169" math="0" shadow="0">
      <root>
        <mxCell id="0" />
        <mxCell id="1" parent="0" />
        <mxCell id="NUsjo2Bg6ZnlfcQhUvYX-3" value="" style="edgeStyle=orthogonalEdgeStyle;rounded=0;orthogonalLoop=1;jettySize=auto;html=1;curved=0;" edge="1" parent="1" source="NUsjo2Bg6ZnlfcQhUvYX-1" target="NUsjo2Bg6ZnlfcQhUvYX-2">
          <mxGeometry relative="1" as="geometry">
            <Array as="points">
              <mxPoint x="290" y="130" />
              <mxPoint x="290" y="130" />
            </Array>
          </mxGeometry>
        </mxCell>
        <mxCell id="NUsjo2Bg6ZnlfcQhUvYX-1" value="UE L3/L2" style="shape=umlLifeline;perimeter=lifelinePerimeter;whiteSpace=wrap;html=1;container=1;dropTarget=0;collapsible=0;recursiveResize=0;outlineConnect=0;portConstraint=eastwest;newEdgeStyle={&quot;curved&quot;:0,&quot;rounded&quot;:0};" vertex="1" parent="1">
          <mxGeometry x="120" y="40" width="100" height="1290" as="geometry" />
        </mxCell>
        <mxCell id="NUsjo2Bg6ZnlfcQhUvYX-2" value="UE L1-C" style="shape=umlLifeline;perimeter=lifelinePerimeter;whiteSpace=wrap;html=1;container=1;dropTarget=0;collapsible=0;recursiveResize=0;outlineConnect=0;portConstraint=eastwest;newEdgeStyle={&quot;curved&quot;:0,&quot;rounded&quot;:0};" vertex="1" parent="1">
          <mxGeometry x="300" y="40" width="100" height="1290" as="geometry" />
        </mxCell>
        <mxCell id="NUsjo2Bg6ZnlfcQhUvYX-4" value="UE L1-D" style="shape=umlLifeline;perimeter=lifelinePerimeter;whiteSpace=wrap;html=1;container=1;dropTarget=0;collapsible=0;recursiveResize=0;outlineConnect=0;portConstraint=eastwest;newEdgeStyle={&quot;curved&quot;:0,&quot;rounded&quot;:0};" vertex="1" parent="1">
          <mxGeometry x="480" y="40" width="100" height="1290" as="geometry" />
        </mxCell>
        <mxCell id="NUsjo2Bg6ZnlfcQhUvYX-14" value="" style="html=1;points=[[0,0,0,0,5],[0,1,0,0,-5],[1,0,0,0,5],[1,1,0,0,-5]];perimeter=orthogonalPerimeter;outlineConnect=0;targetShapes=umlLifeline;portConstraint=eastwest;newEdgeStyle={&quot;curved&quot;:0,&quot;rounded&quot;:0};" vertex="1" parent="NUsjo2Bg6ZnlfcQhUvYX-4">
          <mxGeometry x="45" y="136" width="10" height="80" as="geometry" />
        </mxCell>
        <mxCell id="NUsjo2Bg6ZnlfcQhUvYX-18" value="" style="html=1;points=[[0,0,0,0,5],[0,1,0,0,-5],[1,0,0,0,5],[1,1,0,0,-5]];perimeter=orthogonalPerimeter;outlineConnect=0;targetShapes=umlLifeline;portConstraint=eastwest;newEdgeStyle={&quot;curved&quot;:0,&quot;rounded&quot;:0};" vertex="1" parent="NUsjo2Bg6ZnlfcQhUvYX-4">
          <mxGeometry x="45" y="249" width="10" height="80" as="geometry" />
        </mxCell>
        <mxCell id="NUsjo2Bg6ZnlfcQhUvYX-23" value="" style="html=1;points=[[0,0,0,0,5],[0,1,0,0,-5],[1,0,0,0,5],[1,1,0,0,-5]];perimeter=orthogonalPerimeter;outlineConnect=0;targetShapes=umlLifeline;portConstraint=eastwest;newEdgeStyle={&quot;curved&quot;:0,&quot;rounded&quot;:0};" vertex="1" parent="NUsjo2Bg6ZnlfcQhUvYX-4">
          <mxGeometry x="45" y="359" width="10" height="80" as="geometry" />
        </mxCell>
        <mxCell id="NUsjo2Bg6ZnlfcQhUvYX-36" value="" style="html=1;points=[[0,0,0,0,5],[0,1,0,0,-5],[1,0,0,0,5],[1,1,0,0,-5]];perimeter=orthogonalPerimeter;outlineConnect=0;targetShapes=umlLifeline;portConstraint=eastwest;newEdgeStyle={&quot;curved&quot;:0,&quot;rounded&quot;:0};" vertex="1" parent="NUsjo2Bg6ZnlfcQhUvYX-4">
          <mxGeometry x="45" y="686" width="10" height="80" as="geometry" />
        </mxCell>
        <mxCell id="NUsjo2Bg6ZnlfcQhUvYX-70" value="" style="html=1;points=[[0,0,0,0,5],[0,1,0,0,-5],[1,0,0,0,5],[1,1,0,0,-5]];perimeter=orthogonalPerimeter;outlineConnect=0;targetShapes=umlLifeline;portConstraint=eastwest;newEdgeStyle={&quot;curved&quot;:0,&quot;rounded&quot;:0};" vertex="1" parent="NUsjo2Bg6ZnlfcQhUvYX-4">
          <mxGeometry x="45" y="1089" width="10" height="80" as="geometry" />
        </mxCell>
        <mxCell id="NUsjo2Bg6ZnlfcQhUvYX-6" value="RU" style="shape=umlLifeline;perimeter=lifelinePerimeter;whiteSpace=wrap;html=1;container=1;dropTarget=0;collapsible=0;recursiveResize=0;outlineConnect=0;portConstraint=eastwest;newEdgeStyle={&quot;curved&quot;:0,&quot;rounded&quot;:0};" vertex="1" parent="1">
          <mxGeometry x="660" y="40" width="100" height="1280" as="geometry" />
        </mxCell>
        <mxCell id="NUsjo2Bg6ZnlfcQhUvYX-8" value="access req" style="text;html=1;align=center;verticalAlign=middle;resizable=0;points=[];autosize=1;strokeColor=none;fillColor=none;" vertex="1" parent="1">
          <mxGeometry x="220" y="100" width="80" height="30" as="geometry" />
        </mxCell>
        <mxCell id="NUsjo2Bg6ZnlfcQhUvYX-15" value="PRACH req" style="html=1;verticalAlign=bottom;endArrow=block;curved=0;rounded=0;entryX=0;entryY=0;entryDx=0;entryDy=5;" edge="1" target="NUsjo2Bg6ZnlfcQhUvYX-14" parent="1">
          <mxGeometry relative="1" as="geometry">
            <mxPoint x="349.5" y="181" as="sourcePoint" />
          </mxGeometry>
        </mxCell>
        <mxCell id="NUsjo2Bg6ZnlfcQhUvYX-16" value="PRACH cnf" style="html=1;verticalAlign=bottom;endArrow=open;dashed=1;endSize=8;curved=0;rounded=0;exitX=0;exitY=1;exitDx=0;exitDy=-5;" edge="1" source="NUsjo2Bg6ZnlfcQhUvYX-14" parent="1">
          <mxGeometry relative="1" as="geometry">
            <mxPoint x="349.5" y="251" as="targetPoint" />
          </mxGeometry>
        </mxCell>
        <mxCell id="NUsjo2Bg6ZnlfcQhUvYX-17" value="PRACH transmit" style="text;html=1;align=center;verticalAlign=middle;resizable=0;points=[];autosize=1;strokeColor=none;fillColor=none;rotation=0;" vertex="1" parent="1">
          <mxGeometry x="530" y="189" width="110" height="30" as="geometry" />
        </mxCell>
        <mxCell id="NUsjo2Bg6ZnlfcQhUvYX-19" value="PDCCH req" style="html=1;verticalAlign=bottom;endArrow=block;curved=0;rounded=0;entryX=0;entryY=0;entryDx=0;entryDy=5;" edge="1" target="NUsjo2Bg6ZnlfcQhUvYX-18" parent="1">
          <mxGeometry relative="1" as="geometry">
            <mxPoint x="349.5" y="294" as="sourcePoint" />
          </mxGeometry>
        </mxCell>
        <mxCell id="NUsjo2Bg6ZnlfcQhUvYX-20" value="PDCCH cnf" style="html=1;verticalAlign=bottom;endArrow=open;dashed=1;endSize=8;curved=0;rounded=0;exitX=0;exitY=1;exitDx=0;exitDy=-5;" edge="1" source="NUsjo2Bg6ZnlfcQhUvYX-18" parent="1">
          <mxGeometry relative="1" as="geometry">
            <mxPoint x="349.5" y="364" as="targetPoint" />
          </mxGeometry>
        </mxCell>
        <mxCell id="NUsjo2Bg6ZnlfcQhUvYX-22" value="PDCCH search &amp;amp;&amp;amp; decode" style="text;html=1;align=center;verticalAlign=middle;resizable=0;points=[];autosize=1;strokeColor=none;fillColor=none;" vertex="1" parent="1">
          <mxGeometry x="530" y="297" width="170" height="30" as="geometry" />
        </mxCell>
        <mxCell id="NUsjo2Bg6ZnlfcQhUvYX-24" value="PDSCH req" style="html=1;verticalAlign=bottom;endArrow=block;curved=0;rounded=0;entryX=0;entryY=0;entryDx=0;entryDy=5;" edge="1" target="NUsjo2Bg6ZnlfcQhUvYX-23" parent="1">
          <mxGeometry relative="1" as="geometry">
            <mxPoint x="349.5" y="404" as="sourcePoint" />
          </mxGeometry>
        </mxCell>
        <mxCell id="NUsjo2Bg6ZnlfcQhUvYX-25" value="PDSCH cnf" style="html=1;verticalAlign=bottom;endArrow=open;dashed=1;endSize=8;curved=0;rounded=0;exitX=0;exitY=1;exitDx=0;exitDy=-5;" edge="1" source="NUsjo2Bg6ZnlfcQhUvYX-23" parent="1">
          <mxGeometry relative="1" as="geometry">
            <mxPoint x="349.5" y="474" as="targetPoint" />
          </mxGeometry>
        </mxCell>
        <mxCell id="NUsjo2Bg6ZnlfcQhUvYX-26" value="" style="edgeStyle=none;orthogonalLoop=1;jettySize=auto;html=1;rounded=0;" edge="1" parent="1">
          <mxGeometry width="100" relative="1" as="geometry">
            <mxPoint x="349.5" y="578" as="sourcePoint" />
            <mxPoint x="169.5" y="578" as="targetPoint" />
            <Array as="points">
              <mxPoint x="250" y="578" />
            </Array>
          </mxGeometry>
        </mxCell>
        <mxCell id="NUsjo2Bg6ZnlfcQhUvYX-27" value="access cnf" style="text;html=1;align=center;verticalAlign=middle;resizable=0;points=[];autosize=1;strokeColor=none;fillColor=none;" vertex="1" parent="1">
          <mxGeometry x="220" y="548" width="80" height="30" as="geometry" />
        </mxCell>
        <mxCell id="NUsjo2Bg6ZnlfcQhUvYX-28" value="PDSCH decode" style="text;html=1;align=center;verticalAlign=middle;resizable=0;points=[];autosize=1;strokeColor=none;fillColor=none;" vertex="1" parent="1">
          <mxGeometry x="530" y="409" width="110" height="30" as="geometry" />
        </mxCell>
        <mxCell id="NUsjo2Bg6ZnlfcQhUvYX-30" value="loop with power rampup" style="swimlane;whiteSpace=wrap;html=1;" vertex="1" parent="1">
          <mxGeometry x="330" y="139" width="420" height="420" as="geometry" />
        </mxCell>
        <mxCell id="NUsjo2Bg6ZnlfcQhUvYX-13" value="" style="html=1;points=[[0,0,0,0,5],[0,1,0,0,-5],[1,0,0,0,5],[1,1,0,0,-5]];perimeter=orthogonalPerimeter;outlineConnect=0;targetShapes=umlLifeline;portConstraint=eastwest;newEdgeStyle={&quot;curved&quot;:0,&quot;rounded&quot;:0};" vertex="1" parent="NUsjo2Bg6ZnlfcQhUvYX-30">
          <mxGeometry x="15" y="349" width="10" height="60" as="geometry" />
        </mxCell>
        <mxCell id="NUsjo2Bg6ZnlfcQhUvYX-31" value="RAR parse" style="text;html=1;align=center;verticalAlign=middle;resizable=0;points=[];autosize=1;strokeColor=none;fillColor=none;" vertex="1" parent="NUsjo2Bg6ZnlfcQhUvYX-30">
          <mxGeometry x="25" y="364" width="80" height="30" as="geometry" />
        </mxCell>
        <mxCell id="NUsjo2Bg6ZnlfcQhUvYX-32" value="" style="edgeStyle=none;orthogonalLoop=1;jettySize=auto;html=1;rounded=0;" edge="1" parent="1">
          <mxGeometry width="100" relative="1" as="geometry">
            <mxPoint x="350" y="620" as="sourcePoint" />
            <mxPoint x="170" y="620" as="targetPoint" />
            <Array as="points">
              <mxPoint x="250.5" y="620" />
            </Array>
          </mxGeometry>
        </mxCell>
        <mxCell id="NUsjo2Bg6ZnlfcQhUvYX-33" value="UL-SCH data req" style="text;html=1;align=center;verticalAlign=middle;resizable=0;points=[];autosize=1;strokeColor=none;fillColor=none;" vertex="1" parent="1">
          <mxGeometry x="210" y="590" width="120" height="30" as="geometry" />
        </mxCell>
        <mxCell id="NUsjo2Bg6ZnlfcQhUvYX-34" value="" style="edgeStyle=none;orthogonalLoop=1;jettySize=auto;html=1;rounded=0;" edge="1" parent="1" source="NUsjo2Bg6ZnlfcQhUvYX-1" target="NUsjo2Bg6ZnlfcQhUvYX-2">
          <mxGeometry width="100" relative="1" as="geometry">
            <mxPoint x="190" y="670" as="sourcePoint" />
            <mxPoint x="290" y="670" as="targetPoint" />
            <Array as="points">
              <mxPoint x="230" y="670" />
            </Array>
          </mxGeometry>
        </mxCell>
        <mxCell id="NUsjo2Bg6ZnlfcQhUvYX-35" value="UL-SCH data cnf" style="text;html=1;align=center;verticalAlign=middle;resizable=0;points=[];autosize=1;strokeColor=none;fillColor=none;" vertex="1" parent="1">
          <mxGeometry x="215" y="640" width="110" height="30" as="geometry" />
        </mxCell>
        <mxCell id="NUsjo2Bg6ZnlfcQhUvYX-37" value="PUSCH req" style="html=1;verticalAlign=bottom;endArrow=block;curved=0;rounded=0;entryX=0;entryY=0;entryDx=0;entryDy=5;" edge="1" target="NUsjo2Bg6ZnlfcQhUvYX-36" parent="1">
          <mxGeometry relative="1" as="geometry">
            <mxPoint x="349.5" y="731" as="sourcePoint" />
          </mxGeometry>
        </mxCell>
        <mxCell id="NUsjo2Bg6ZnlfcQhUvYX-38" value="PUSCH cnf" style="html=1;verticalAlign=bottom;endArrow=open;dashed=1;endSize=8;curved=0;rounded=0;exitX=0;exitY=1;exitDx=0;exitDy=-5;" edge="1" source="NUsjo2Bg6ZnlfcQhUvYX-36" parent="1">
          <mxGeometry relative="1" as="geometry">
            <mxPoint x="349.5" y="801" as="targetPoint" />
          </mxGeometry>
        </mxCell>
        <mxCell id="NUsjo2Bg6ZnlfcQhUvYX-39" value="PUSCH transmit" style="text;html=1;align=center;verticalAlign=middle;resizable=0;points=[];autosize=1;strokeColor=none;fillColor=none;" vertex="1" parent="1">
          <mxGeometry x="530" y="744" width="110" height="30" as="geometry" />
        </mxCell>
        <mxCell id="NUsjo2Bg6ZnlfcQhUvYX-48" value="" style="html=1;points=[[0,0,0,0,5],[0,1,0,0,-5],[1,0,0,0,5],[1,1,0,0,-5]];perimeter=orthogonalPerimeter;outlineConnect=0;targetShapes=umlLifeline;portConstraint=eastwest;newEdgeStyle={&quot;curved&quot;:0,&quot;rounded&quot;:0};" vertex="1" parent="1">
          <mxGeometry x="525" y="876" width="10" height="80" as="geometry" />
        </mxCell>
        <mxCell id="NUsjo2Bg6ZnlfcQhUvYX-49" value="" style="html=1;points=[[0,0,0,0,5],[0,1,0,0,-5],[1,0,0,0,5],[1,1,0,0,-5]];perimeter=orthogonalPerimeter;outlineConnect=0;targetShapes=umlLifeline;portConstraint=eastwest;newEdgeStyle={&quot;curved&quot;:0,&quot;rounded&quot;:0};" vertex="1" parent="1">
          <mxGeometry x="525" y="986" width="10" height="80" as="geometry" />
        </mxCell>
        <mxCell id="NUsjo2Bg6ZnlfcQhUvYX-50" value="PDCCH req" style="html=1;verticalAlign=bottom;endArrow=block;curved=0;rounded=0;entryX=0;entryY=0;entryDx=0;entryDy=5;" edge="1" parent="1" target="NUsjo2Bg6ZnlfcQhUvYX-48">
          <mxGeometry relative="1" as="geometry">
            <mxPoint x="349.5" y="881" as="sourcePoint" />
          </mxGeometry>
        </mxCell>
        <mxCell id="NUsjo2Bg6ZnlfcQhUvYX-51" value="PDCCH cnf" style="html=1;verticalAlign=bottom;endArrow=open;dashed=1;endSize=8;curved=0;rounded=0;exitX=0;exitY=1;exitDx=0;exitDy=-5;" edge="1" parent="1" source="NUsjo2Bg6ZnlfcQhUvYX-48">
          <mxGeometry relative="1" as="geometry">
            <mxPoint x="349.5" y="951" as="targetPoint" />
          </mxGeometry>
        </mxCell>
        <mxCell id="NUsjo2Bg6ZnlfcQhUvYX-52" value="PDCCH search &amp;amp;&amp;amp; decode" style="text;html=1;align=center;verticalAlign=middle;resizable=0;points=[];autosize=1;strokeColor=none;fillColor=none;" vertex="1" parent="1">
          <mxGeometry x="530" y="884" width="170" height="30" as="geometry" />
        </mxCell>
        <mxCell id="NUsjo2Bg6ZnlfcQhUvYX-53" value="PDSCH req" style="html=1;verticalAlign=bottom;endArrow=block;curved=0;rounded=0;entryX=0;entryY=0;entryDx=0;entryDy=5;" edge="1" parent="1" target="NUsjo2Bg6ZnlfcQhUvYX-49">
          <mxGeometry relative="1" as="geometry">
            <mxPoint x="349.5" y="991" as="sourcePoint" />
          </mxGeometry>
        </mxCell>
        <mxCell id="NUsjo2Bg6ZnlfcQhUvYX-54" value="PDSCH cnf" style="html=1;verticalAlign=bottom;endArrow=open;dashed=1;endSize=8;curved=0;rounded=0;exitX=0;exitY=1;exitDx=0;exitDy=-5;" edge="1" parent="1" source="NUsjo2Bg6ZnlfcQhUvYX-49">
          <mxGeometry relative="1" as="geometry">
            <mxPoint x="349.5" y="1061" as="targetPoint" />
          </mxGeometry>
        </mxCell>
        <mxCell id="NUsjo2Bg6ZnlfcQhUvYX-55" value="PDSCH decode" style="text;html=1;align=center;verticalAlign=middle;resizable=0;points=[];autosize=1;strokeColor=none;fillColor=none;" vertex="1" parent="1">
          <mxGeometry x="530" y="996" width="110" height="30" as="geometry" />
        </mxCell>
        <mxCell id="NUsjo2Bg6ZnlfcQhUvYX-56" value="" style="edgeStyle=none;orthogonalLoop=1;jettySize=auto;html=1;rounded=0;" edge="1" parent="1">
          <mxGeometry width="100" relative="1" as="geometry">
            <mxPoint x="350" y="1102" as="sourcePoint" />
            <mxPoint x="170" y="1102" as="targetPoint" />
            <Array as="points">
              <mxPoint x="250.5" y="1102" />
            </Array>
          </mxGeometry>
        </mxCell>
        <mxCell id="NUsjo2Bg6ZnlfcQhUvYX-57" value="DL-SCH data ind" style="text;html=1;align=center;verticalAlign=middle;resizable=0;points=[];autosize=1;strokeColor=none;fillColor=none;" vertex="1" parent="1">
          <mxGeometry x="205" y="1072" width="110" height="30" as="geometry" />
        </mxCell>
        <mxCell id="NUsjo2Bg6ZnlfcQhUvYX-58" value="" style="edgeStyle=none;orthogonalLoop=1;jettySize=auto;html=1;rounded=0;" edge="1" parent="1">
          <mxGeometry width="100" relative="1" as="geometry">
            <mxPoint x="170" y="1275" as="sourcePoint" />
            <mxPoint x="350" y="1275" as="targetPoint" />
            <Array as="points">
              <mxPoint x="230" y="1275" />
            </Array>
          </mxGeometry>
        </mxCell>
        <mxCell id="NUsjo2Bg6ZnlfcQhUvYX-59" value="serving cell config req" style="text;html=1;align=center;verticalAlign=middle;resizable=0;points=[];autosize=1;strokeColor=none;fillColor=none;" vertex="1" parent="1">
          <mxGeometry x="190" y="1245" width="140" height="30" as="geometry" />
        </mxCell>
        <mxCell id="NUsjo2Bg6ZnlfcQhUvYX-60" value="" style="edgeStyle=none;orthogonalLoop=1;jettySize=auto;html=1;rounded=0;" edge="1" parent="1">
          <mxGeometry width="100" relative="1" as="geometry">
            <mxPoint x="350" y="1325" as="sourcePoint" />
            <mxPoint x="170" y="1325" as="targetPoint" />
            <Array as="points">
              <mxPoint x="250.5" y="1325" />
            </Array>
          </mxGeometry>
        </mxCell>
        <mxCell id="NUsjo2Bg6ZnlfcQhUvYX-61" value="serving cell config cnf" style="text;html=1;align=center;verticalAlign=middle;resizable=0;points=[];autosize=1;strokeColor=none;fillColor=none;" vertex="1" parent="1">
          <mxGeometry x="190" y="1295" width="140" height="30" as="geometry" />
        </mxCell>
        <mxCell id="NUsjo2Bg6ZnlfcQhUvYX-71" value="PUCCH req" style="html=1;verticalAlign=bottom;endArrow=block;curved=0;rounded=0;entryX=0;entryY=0;entryDx=0;entryDy=5;" edge="1" target="NUsjo2Bg6ZnlfcQhUvYX-70" parent="1">
          <mxGeometry relative="1" as="geometry">
            <mxPoint x="349.5" y="1134" as="sourcePoint" />
          </mxGeometry>
        </mxCell>
        <mxCell id="NUsjo2Bg6ZnlfcQhUvYX-72" value="PUCCH cnf" style="html=1;verticalAlign=bottom;endArrow=open;dashed=1;endSize=8;curved=0;rounded=0;exitX=0;exitY=1;exitDx=0;exitDy=-5;" edge="1" source="NUsjo2Bg6ZnlfcQhUvYX-70" parent="1">
          <mxGeometry x="0.0028" relative="1" as="geometry">
            <mxPoint x="349.5" y="1204" as="targetPoint" />
            <mxPoint as="offset" />
          </mxGeometry>
        </mxCell>
        <mxCell id="NUsjo2Bg6ZnlfcQhUvYX-73" value="PUCCH transmit" style="text;html=1;align=center;verticalAlign=middle;resizable=0;points=[];autosize=1;strokeColor=none;fillColor=none;" vertex="1" parent="1">
          <mxGeometry x="535" y="1140" width="110" height="30" as="geometry" />
        </mxCell>
        <mxCell id="NUsjo2Bg6ZnlfcQhUvYX-74" value="loop" style="swimlane;whiteSpace=wrap;html=1;" vertex="1" parent="1">
          <mxGeometry x="140" y="826" width="600" height="404" as="geometry" />
        </mxCell>
      </root>
    </mxGraphModel>
  </diagram>
  <diagram id="SPHarRbVXO314dEmlWDK" name="第 11 页">
    <mxGraphModel dx="1026" dy="501" grid="1" gridSize="10" guides="1" tooltips="1" connect="1" arrows="1" fold="1" page="1" pageScale="1" pageWidth="827" pageHeight="1169" math="0" shadow="0">
      <root>
        <mxCell id="0" />
        <mxCell id="1" parent="0" />
        <mxCell id="ZVj1JKXEfz90Qj-47JJu-1" value="UE L3/L2" style="shape=umlLifeline;perimeter=lifelinePerimeter;whiteSpace=wrap;html=1;container=1;dropTarget=0;collapsible=0;recursiveResize=0;outlineConnect=0;portConstraint=eastwest;newEdgeStyle={&quot;curved&quot;:0,&quot;rounded&quot;:0};" vertex="1" parent="1">
          <mxGeometry x="160" y="40" width="100" height="430" as="geometry" />
        </mxCell>
        <mxCell id="ZVj1JKXEfz90Qj-47JJu-2" value="UE L1-C" style="shape=umlLifeline;perimeter=lifelinePerimeter;whiteSpace=wrap;html=1;container=1;dropTarget=0;collapsible=0;recursiveResize=0;outlineConnect=0;portConstraint=eastwest;newEdgeStyle={&quot;curved&quot;:0,&quot;rounded&quot;:0};" vertex="1" parent="1">
          <mxGeometry x="340" y="40" width="100" height="430" as="geometry" />
        </mxCell>
        <mxCell id="ZVj1JKXEfz90Qj-47JJu-4" value="UE L1-D" style="shape=umlLifeline;perimeter=lifelinePerimeter;whiteSpace=wrap;html=1;container=1;dropTarget=0;collapsible=0;recursiveResize=0;outlineConnect=0;portConstraint=eastwest;newEdgeStyle={&quot;curved&quot;:0,&quot;rounded&quot;:0};" vertex="1" parent="1">
          <mxGeometry x="520" y="40" width="100" height="430" as="geometry" />
        </mxCell>
        <mxCell id="ZVj1JKXEfz90Qj-47JJu-8" value="" style="html=1;points=[[0,0,0,0,5],[0,1,0,0,-5],[1,0,0,0,5],[1,1,0,0,-5]];perimeter=orthogonalPerimeter;outlineConnect=0;targetShapes=umlLifeline;portConstraint=eastwest;newEdgeStyle={&quot;curved&quot;:0,&quot;rounded&quot;:0};" vertex="1" parent="ZVj1JKXEfz90Qj-47JJu-4">
          <mxGeometry x="45" y="88" width="10" height="80" as="geometry" />
        </mxCell>
        <mxCell id="ZVj1JKXEfz90Qj-47JJu-13" value="" style="html=1;points=[[0,0,0,0,5],[0,1,0,0,-5],[1,0,0,0,5],[1,1,0,0,-5]];perimeter=orthogonalPerimeter;outlineConnect=0;targetShapes=umlLifeline;portConstraint=eastwest;newEdgeStyle={&quot;curved&quot;:0,&quot;rounded&quot;:0};" vertex="1" parent="ZVj1JKXEfz90Qj-47JJu-4">
          <mxGeometry x="45" y="210" width="10" height="80" as="geometry" />
        </mxCell>
        <mxCell id="ZVj1JKXEfz90Qj-47JJu-19" value="" style="html=1;points=[[0,0,0,0,5],[0,1,0,0,-5],[1,0,0,0,5],[1,1,0,0,-5]];perimeter=orthogonalPerimeter;outlineConnect=0;targetShapes=umlLifeline;portConstraint=eastwest;newEdgeStyle={&quot;curved&quot;:0,&quot;rounded&quot;:0};" vertex="1" parent="ZVj1JKXEfz90Qj-47JJu-4">
          <mxGeometry x="45" y="340" width="10" height="80" as="geometry" />
        </mxCell>
        <mxCell id="ZVj1JKXEfz90Qj-47JJu-6" value="RU" style="shape=umlLifeline;perimeter=lifelinePerimeter;whiteSpace=wrap;html=1;container=1;dropTarget=0;collapsible=0;recursiveResize=0;outlineConnect=0;portConstraint=eastwest;newEdgeStyle={&quot;curved&quot;:0,&quot;rounded&quot;:0};" vertex="1" parent="1">
          <mxGeometry x="700" y="40" width="100" height="420" as="geometry" />
        </mxCell>
        <mxCell id="ZVj1JKXEfz90Qj-47JJu-9" value="PDCCH req" style="html=1;verticalAlign=bottom;endArrow=block;curved=0;rounded=0;entryX=0;entryY=0;entryDx=0;entryDy=5;" edge="1" target="ZVj1JKXEfz90Qj-47JJu-8" parent="1" source="ZVj1JKXEfz90Qj-47JJu-2">
          <mxGeometry x="0.0028" relative="1" as="geometry">
            <mxPoint x="495" y="133" as="sourcePoint" />
            <mxPoint as="offset" />
          </mxGeometry>
        </mxCell>
        <mxCell id="ZVj1JKXEfz90Qj-47JJu-10" value="PDCCH cnf" style="html=1;verticalAlign=bottom;endArrow=open;dashed=1;endSize=8;curved=0;rounded=0;exitX=0;exitY=1;exitDx=0;exitDy=-5;" edge="1" source="ZVj1JKXEfz90Qj-47JJu-8" parent="1" target="ZVj1JKXEfz90Qj-47JJu-2">
          <mxGeometry relative="1" as="geometry">
            <mxPoint x="495" y="203" as="targetPoint" />
          </mxGeometry>
        </mxCell>
        <mxCell id="ZVj1JKXEfz90Qj-47JJu-12" value="PDCCH search &amp;amp;&amp;amp; decode" style="text;html=1;align=center;verticalAlign=middle;resizable=0;points=[];autosize=1;strokeColor=none;fillColor=none;" vertex="1" parent="1">
          <mxGeometry x="570" y="150" width="170" height="30" as="geometry" />
        </mxCell>
        <mxCell id="ZVj1JKXEfz90Qj-47JJu-14" value="PDSCH req" style="html=1;verticalAlign=bottom;endArrow=block;curved=0;rounded=0;entryX=0;entryY=0;entryDx=0;entryDy=5;" edge="1" target="ZVj1JKXEfz90Qj-47JJu-13" parent="1" source="ZVj1JKXEfz90Qj-47JJu-2">
          <mxGeometry relative="1" as="geometry">
            <mxPoint x="495" y="255" as="sourcePoint" />
          </mxGeometry>
        </mxCell>
        <mxCell id="ZVj1JKXEfz90Qj-47JJu-15" value="PDSCH cnf" style="html=1;verticalAlign=bottom;endArrow=open;dashed=1;endSize=8;curved=0;rounded=0;exitX=0;exitY=1;exitDx=0;exitDy=-5;" edge="1" source="ZVj1JKXEfz90Qj-47JJu-13" parent="1" target="ZVj1JKXEfz90Qj-47JJu-2">
          <mxGeometry relative="1" as="geometry">
            <mxPoint x="495" y="325" as="targetPoint" />
          </mxGeometry>
        </mxCell>
        <mxCell id="ZVj1JKXEfz90Qj-47JJu-16" value="PDSCH decode" style="text;html=1;align=center;verticalAlign=middle;resizable=0;points=[];autosize=1;strokeColor=none;fillColor=none;" vertex="1" parent="1">
          <mxGeometry x="570" y="268" width="110" height="30" as="geometry" />
        </mxCell>
        <mxCell id="ZVj1JKXEfz90Qj-47JJu-17" value="" style="edgeStyle=none;orthogonalLoop=1;jettySize=auto;html=1;rounded=0;" edge="1" parent="1">
          <mxGeometry width="100" relative="1" as="geometry">
            <mxPoint x="389.5" y="360" as="sourcePoint" />
            <mxPoint x="209.5" y="360" as="targetPoint" />
            <Array as="points" />
          </mxGeometry>
        </mxCell>
        <mxCell id="ZVj1JKXEfz90Qj-47JJu-18" value="DL-SCH data ind" style="text;html=1;align=center;verticalAlign=middle;resizable=0;points=[];autosize=1;strokeColor=none;fillColor=none;" vertex="1" parent="1">
          <mxGeometry x="250" y="330" width="110" height="30" as="geometry" />
        </mxCell>
        <mxCell id="ZVj1JKXEfz90Qj-47JJu-20" value="PUCCH req" style="html=1;verticalAlign=bottom;endArrow=block;curved=0;rounded=0;entryX=0;entryY=0;entryDx=0;entryDy=5;" edge="1" target="ZVj1JKXEfz90Qj-47JJu-19" parent="1" source="ZVj1JKXEfz90Qj-47JJu-2">
          <mxGeometry relative="1" as="geometry">
            <mxPoint x="495" y="385" as="sourcePoint" />
          </mxGeometry>
        </mxCell>
        <mxCell id="ZVj1JKXEfz90Qj-47JJu-21" value="PUCCH cnf" style="html=1;verticalAlign=bottom;endArrow=open;dashed=1;endSize=8;curved=0;rounded=0;exitX=0;exitY=1;exitDx=0;exitDy=-5;" edge="1" source="ZVj1JKXEfz90Qj-47JJu-19" parent="1" target="ZVj1JKXEfz90Qj-47JJu-2">
          <mxGeometry x="0.0028" relative="1" as="geometry">
            <mxPoint x="495" y="455" as="targetPoint" />
            <mxPoint as="offset" />
          </mxGeometry>
        </mxCell>
        <mxCell id="ZVj1JKXEfz90Qj-47JJu-22" value="PUCCH transmit" style="text;html=1;align=center;verticalAlign=middle;resizable=0;points=[];autosize=1;strokeColor=none;fillColor=none;" vertex="1" parent="1">
          <mxGeometry x="570" y="390" width="110" height="30" as="geometry" />
        </mxCell>
      </root>
    </mxGraphModel>
  </diagram>
  <diagram id="xWNLW5-RhECd4j7mdeWB" name="第 12 页">
    <mxGraphModel dx="1026" dy="501" grid="1" gridSize="10" guides="1" tooltips="1" connect="1" arrows="1" fold="1" page="1" pageScale="1" pageWidth="827" pageHeight="1169" math="0" shadow="0">
      <root>
        <mxCell id="0" />
        <mxCell id="1" parent="0" />
        <mxCell id="V7_Xng23w0k6ljlMiw0K-3" value="" style="edgeStyle=orthogonalEdgeStyle;rounded=0;orthogonalLoop=1;jettySize=auto;html=1;curved=0;" edge="1" parent="1" source="V7_Xng23w0k6ljlMiw0K-1" target="V7_Xng23w0k6ljlMiw0K-2">
          <mxGeometry relative="1" as="geometry">
            <Array as="points">
              <mxPoint x="280" y="230" />
              <mxPoint x="280" y="230" />
            </Array>
          </mxGeometry>
        </mxCell>
        <mxCell id="V7_Xng23w0k6ljlMiw0K-1" value="UE L3/L2" style="shape=umlLifeline;perimeter=lifelinePerimeter;whiteSpace=wrap;html=1;container=1;dropTarget=0;collapsible=0;recursiveResize=0;outlineConnect=0;portConstraint=eastwest;newEdgeStyle={&quot;curved&quot;:0,&quot;rounded&quot;:0};" vertex="1" parent="1">
          <mxGeometry x="120" y="80" width="100" height="600" as="geometry" />
        </mxCell>
        <mxCell id="V7_Xng23w0k6ljlMiw0K-2" value="UE L1-C" style="shape=umlLifeline;perimeter=lifelinePerimeter;whiteSpace=wrap;html=1;container=1;dropTarget=0;collapsible=0;recursiveResize=0;outlineConnect=0;portConstraint=eastwest;newEdgeStyle={&quot;curved&quot;:0,&quot;rounded&quot;:0};" vertex="1" parent="1">
          <mxGeometry x="300" y="80" width="100" height="600" as="geometry" />
        </mxCell>
        <mxCell id="V7_Xng23w0k6ljlMiw0K-4" value="UE L1-D" style="shape=umlLifeline;perimeter=lifelinePerimeter;whiteSpace=wrap;html=1;container=1;dropTarget=0;collapsible=0;recursiveResize=0;outlineConnect=0;portConstraint=eastwest;newEdgeStyle={&quot;curved&quot;:0,&quot;rounded&quot;:0};" vertex="1" parent="1">
          <mxGeometry x="480" y="80" width="100" height="600" as="geometry" />
        </mxCell>
        <mxCell id="V7_Xng23w0k6ljlMiw0K-9" value="" style="html=1;points=[[0,0,0,0,5],[0,1,0,0,-5],[1,0,0,0,5],[1,1,0,0,-5]];perimeter=orthogonalPerimeter;outlineConnect=0;targetShapes=umlLifeline;portConstraint=eastwest;newEdgeStyle={&quot;curved&quot;:0,&quot;rounded&quot;:0};" vertex="1" parent="V7_Xng23w0k6ljlMiw0K-4">
          <mxGeometry x="45" y="180" width="10" height="80" as="geometry" />
        </mxCell>
        <mxCell id="V7_Xng23w0k6ljlMiw0K-16" value="" style="html=1;points=[[0,0,0,0,5],[0,1,0,0,-5],[1,0,0,0,5],[1,1,0,0,-5]];perimeter=orthogonalPerimeter;outlineConnect=0;targetShapes=umlLifeline;portConstraint=eastwest;newEdgeStyle={&quot;curved&quot;:0,&quot;rounded&quot;:0};" vertex="1" parent="V7_Xng23w0k6ljlMiw0K-4">
          <mxGeometry x="45" y="498" width="10" height="80" as="geometry" />
        </mxCell>
        <mxCell id="V7_Xng23w0k6ljlMiw0K-6" value="RU" style="shape=umlLifeline;perimeter=lifelinePerimeter;whiteSpace=wrap;html=1;container=1;dropTarget=0;collapsible=0;recursiveResize=0;outlineConnect=0;portConstraint=eastwest;newEdgeStyle={&quot;curved&quot;:0,&quot;rounded&quot;:0};" vertex="1" parent="1">
          <mxGeometry x="660" y="80" width="100" height="600" as="geometry" />
        </mxCell>
        <mxCell id="V7_Xng23w0k6ljlMiw0K-8" value="SR req" style="text;html=1;align=center;verticalAlign=middle;resizable=0;points=[];autosize=1;strokeColor=none;fillColor=none;" vertex="1" parent="1">
          <mxGeometry x="230" y="200" width="60" height="30" as="geometry" />
        </mxCell>
        <mxCell id="V7_Xng23w0k6ljlMiw0K-10" value="PUCCH req" style="html=1;verticalAlign=bottom;endArrow=block;curved=0;rounded=0;entryX=0;entryY=0;entryDx=0;entryDy=5;" edge="1" target="V7_Xng23w0k6ljlMiw0K-9" parent="1" source="V7_Xng23w0k6ljlMiw0K-2">
          <mxGeometry x="0.0028" relative="1" as="geometry">
            <mxPoint x="455" y="265" as="sourcePoint" />
            <mxPoint as="offset" />
          </mxGeometry>
        </mxCell>
        <mxCell id="V7_Xng23w0k6ljlMiw0K-11" value="PUCCH cnf" style="html=1;verticalAlign=bottom;endArrow=open;dashed=1;endSize=8;curved=0;rounded=0;exitX=0;exitY=1;exitDx=0;exitDy=-5;" edge="1" source="V7_Xng23w0k6ljlMiw0K-9" parent="1" target="V7_Xng23w0k6ljlMiw0K-2">
          <mxGeometry relative="1" as="geometry">
            <mxPoint x="455" y="335" as="targetPoint" />
          </mxGeometry>
        </mxCell>
        <mxCell id="V7_Xng23w0k6ljlMiw0K-13" value="" style="html=1;points=[[0,0,0,0,5],[0,1,0,0,-5],[1,0,0,0,5],[1,1,0,0,-5]];perimeter=orthogonalPerimeter;outlineConnect=0;targetShapes=umlLifeline;portConstraint=eastwest;newEdgeStyle={&quot;curved&quot;:0,&quot;rounded&quot;:0};" vertex="1" parent="1">
          <mxGeometry x="525" y="380" width="10" height="80" as="geometry" />
        </mxCell>
        <mxCell id="V7_Xng23w0k6ljlMiw0K-14" value="PDCCH req" style="html=1;verticalAlign=bottom;endArrow=block;curved=0;rounded=0;entryX=0;entryY=0;entryDx=0;entryDy=5;" edge="1" target="V7_Xng23w0k6ljlMiw0K-13" parent="1" source="V7_Xng23w0k6ljlMiw0K-2">
          <mxGeometry x="0.0028" relative="1" as="geometry">
            <mxPoint x="455" y="385" as="sourcePoint" />
            <mxPoint as="offset" />
          </mxGeometry>
        </mxCell>
        <mxCell id="V7_Xng23w0k6ljlMiw0K-15" value="PDCCH cnf" style="html=1;verticalAlign=bottom;endArrow=open;dashed=1;endSize=8;curved=0;rounded=0;exitX=0;exitY=1;exitDx=0;exitDy=-5;" edge="1" source="V7_Xng23w0k6ljlMiw0K-13" parent="1" target="V7_Xng23w0k6ljlMiw0K-2">
          <mxGeometry x="0.0028" relative="1" as="geometry">
            <mxPoint x="455" y="455" as="targetPoint" />
            <mxPoint as="offset" />
          </mxGeometry>
        </mxCell>
        <mxCell id="V7_Xng23w0k6ljlMiw0K-19" value="PUCCH transmit" style="text;html=1;align=center;verticalAlign=middle;resizable=0;points=[];autosize=1;strokeColor=none;fillColor=none;" vertex="1" parent="1">
          <mxGeometry x="535" y="278" width="110" height="30" as="geometry" />
        </mxCell>
        <mxCell id="V7_Xng23w0k6ljlMiw0K-20" value="PDCCH search &amp;amp;&amp;amp; decode" style="text;html=1;align=center;verticalAlign=middle;resizable=0;points=[];autosize=1;strokeColor=none;fillColor=none;" vertex="1" parent="1">
          <mxGeometry x="535" y="400" width="170" height="30" as="geometry" />
        </mxCell>
        <mxCell id="V7_Xng23w0k6ljlMiw0K-17" value="PUSCH req" style="html=1;verticalAlign=bottom;endArrow=block;curved=0;rounded=0;entryX=0;entryY=0;entryDx=0;entryDy=5;" edge="1" target="V7_Xng23w0k6ljlMiw0K-16" parent="1">
          <mxGeometry relative="1" as="geometry">
            <mxPoint x="349.5" y="583" as="sourcePoint" />
          </mxGeometry>
        </mxCell>
        <mxCell id="V7_Xng23w0k6ljlMiw0K-18" value="PUSCH cnf" style="html=1;verticalAlign=bottom;endArrow=open;dashed=1;endSize=8;curved=0;rounded=0;exitX=0;exitY=1;exitDx=0;exitDy=-5;" edge="1" source="V7_Xng23w0k6ljlMiw0K-16" parent="1">
          <mxGeometry x="0.0028" relative="1" as="geometry">
            <mxPoint x="349.5" y="653" as="targetPoint" />
            <mxPoint as="offset" />
          </mxGeometry>
        </mxCell>
        <mxCell id="V7_Xng23w0k6ljlMiw0K-21" value="" style="edgeStyle=none;orthogonalLoop=1;jettySize=auto;html=1;rounded=0;" edge="1" parent="1" source="V7_Xng23w0k6ljlMiw0K-2" target="V7_Xng23w0k6ljlMiw0K-1">
          <mxGeometry width="100" relative="1" as="geometry">
            <mxPoint x="240" y="480" as="sourcePoint" />
            <mxPoint x="340" y="480" as="targetPoint" />
            <Array as="points">
              <mxPoint x="250" y="500" />
            </Array>
          </mxGeometry>
        </mxCell>
        <mxCell id="V7_Xng23w0k6ljlMiw0K-22" value="UL-SCH data req" style="text;html=1;align=center;verticalAlign=middle;resizable=0;points=[];autosize=1;strokeColor=none;fillColor=none;" vertex="1" parent="1">
          <mxGeometry x="200" y="470" width="120" height="30" as="geometry" />
        </mxCell>
        <mxCell id="V7_Xng23w0k6ljlMiw0K-23" value="" style="edgeStyle=none;orthogonalLoop=1;jettySize=auto;html=1;rounded=0;" edge="1" parent="1" source="V7_Xng23w0k6ljlMiw0K-1" target="V7_Xng23w0k6ljlMiw0K-2">
          <mxGeometry width="100" relative="1" as="geometry">
            <mxPoint x="190" y="550" as="sourcePoint" />
            <mxPoint x="290" y="550" as="targetPoint" />
            <Array as="points">
              <mxPoint x="260" y="550" />
            </Array>
          </mxGeometry>
        </mxCell>
        <mxCell id="V7_Xng23w0k6ljlMiw0K-24" value="UL-SCH data cnf" style="text;html=1;align=center;verticalAlign=middle;resizable=0;points=[];autosize=1;strokeColor=none;fillColor=none;" vertex="1" parent="1">
          <mxGeometry x="205" y="520" width="110" height="30" as="geometry" />
        </mxCell>
      </root>
    </mxGraphModel>
  </diagram>
  <diagram id="_sTqJne4qUlVJ9SqKqZ3" name="第 13 页">
    <mxGraphModel dx="1853" dy="501" grid="1" gridSize="10" guides="1" tooltips="1" connect="1" arrows="1" fold="1" page="1" pageScale="1" pageWidth="827" pageHeight="1169" math="0" shadow="0">
      <root>
        <mxCell id="0" />
        <mxCell id="1" parent="0" />
        <mxCell id="fxx70H4rNBe09gJKNT1c-1" value="PBCH" style="whiteSpace=wrap;html=1;" vertex="1" parent="1">
          <mxGeometry x="380" width="120" height="60" as="geometry" />
        </mxCell>
        <mxCell id="fxx70H4rNBe09gJKNT1c-2" value="PDSCH" style="whiteSpace=wrap;html=1;" vertex="1" parent="1">
          <mxGeometry x="380" y="140" width="120" height="60" as="geometry" />
        </mxCell>
        <mxCell id="fxx70H4rNBe09gJKNT1c-3" value="PDCCH" style="whiteSpace=wrap;html=1;" vertex="1" parent="1">
          <mxGeometry x="380" y="280" width="120" height="60" as="geometry" />
        </mxCell>
        <mxCell id="fxx70H4rNBe09gJKNT1c-4" value="PSS/SSS" style="whiteSpace=wrap;html=1;" vertex="1" parent="1">
          <mxGeometry x="380" y="370" width="120" height="60" as="geometry" />
        </mxCell>
        <mxCell id="fxx70H4rNBe09gJKNT1c-5" value="CSI-RS" style="whiteSpace=wrap;html=1;" vertex="1" parent="1">
          <mxGeometry x="380" y="460" width="120" height="60" as="geometry" />
        </mxCell>
        <mxCell id="fxx70H4rNBe09gJKNT1c-7" style="edgeStyle=orthogonalEdgeStyle;rounded=0;orthogonalLoop=1;jettySize=auto;html=1;exitX=1;exitY=0.5;exitDx=0;exitDy=0;entryX=0;entryY=0.5;entryDx=0;entryDy=0;" edge="1" parent="1" source="fxx70H4rNBe09gJKNT1c-6" target="fxx70H4rNBe09gJKNT1c-1">
          <mxGeometry relative="1" as="geometry" />
        </mxCell>
        <mxCell id="fxx70H4rNBe09gJKNT1c-6" value="BCH" style="whiteSpace=wrap;html=1;" vertex="1" parent="1">
          <mxGeometry x="110" width="120" height="60" as="geometry" />
        </mxCell>
        <mxCell id="fxx70H4rNBe09gJKNT1c-11" style="edgeStyle=orthogonalEdgeStyle;rounded=0;orthogonalLoop=1;jettySize=auto;html=1;exitX=1;exitY=0.5;exitDx=0;exitDy=0;entryX=0;entryY=0.5;entryDx=0;entryDy=0;" edge="1" parent="1" source="fxx70H4rNBe09gJKNT1c-8" target="fxx70H4rNBe09gJKNT1c-2">
          <mxGeometry relative="1" as="geometry" />
        </mxCell>
        <mxCell id="fxx70H4rNBe09gJKNT1c-8" value="DL-SCH" style="whiteSpace=wrap;html=1;" vertex="1" parent="1">
          <mxGeometry x="110" y="140" width="120" height="60" as="geometry" />
        </mxCell>
        <mxCell id="fxx70H4rNBe09gJKNT1c-15" style="edgeStyle=orthogonalEdgeStyle;rounded=0;orthogonalLoop=1;jettySize=auto;html=1;exitX=1;exitY=0.5;exitDx=0;exitDy=0;entryX=0;entryY=0.75;entryDx=0;entryDy=0;" edge="1" parent="1" source="fxx70H4rNBe09gJKNT1c-10" target="fxx70H4rNBe09gJKNT1c-2">
          <mxGeometry relative="1" as="geometry" />
        </mxCell>
        <mxCell id="fxx70H4rNBe09gJKNT1c-10" value="PCH" style="whiteSpace=wrap;html=1;" vertex="1" parent="1">
          <mxGeometry x="110" y="222" width="120" height="60" as="geometry" />
        </mxCell>
        <mxCell id="fxx70H4rNBe09gJKNT1c-17" style="edgeStyle=orthogonalEdgeStyle;rounded=0;orthogonalLoop=1;jettySize=auto;html=1;exitX=1;exitY=0.5;exitDx=0;exitDy=0;entryX=0;entryY=0.5;entryDx=0;entryDy=0;" edge="1" parent="1" source="fxx70H4rNBe09gJKNT1c-16" target="fxx70H4rNBe09gJKNT1c-3">
          <mxGeometry relative="1" as="geometry" />
        </mxCell>
        <mxCell id="fxx70H4rNBe09gJKNT1c-16" value="DCI" style="whiteSpace=wrap;html=1;" vertex="1" parent="1">
          <mxGeometry x="230" y="295" width="60" height="30" as="geometry" />
        </mxCell>
        <mxCell id="fxx70H4rNBe09gJKNT1c-19" style="edgeStyle=orthogonalEdgeStyle;rounded=0;orthogonalLoop=1;jettySize=auto;html=1;exitX=1;exitY=0.5;exitDx=0;exitDy=0;entryX=0;entryY=0.5;entryDx=0;entryDy=0;" edge="1" parent="1" source="fxx70H4rNBe09gJKNT1c-18" target="fxx70H4rNBe09gJKNT1c-10">
          <mxGeometry relative="1" as="geometry" />
        </mxCell>
        <mxCell id="fxx70H4rNBe09gJKNT1c-18" value="PCCH" style="whiteSpace=wrap;html=1;" vertex="1" parent="1">
          <mxGeometry x="-80" y="350" width="120" height="60" as="geometry" />
        </mxCell>
        <mxCell id="fxx70H4rNBe09gJKNT1c-21" style="edgeStyle=orthogonalEdgeStyle;rounded=0;orthogonalLoop=1;jettySize=auto;html=1;exitX=1;exitY=0.5;exitDx=0;exitDy=0;entryX=0;entryY=0.5;entryDx=0;entryDy=0;" edge="1" parent="1" source="fxx70H4rNBe09gJKNT1c-20" target="fxx70H4rNBe09gJKNT1c-6">
          <mxGeometry relative="1" as="geometry" />
        </mxCell>
        <mxCell id="fxx70H4rNBe09gJKNT1c-27" style="edgeStyle=orthogonalEdgeStyle;rounded=0;orthogonalLoop=1;jettySize=auto;html=1;exitX=1;exitY=0.75;exitDx=0;exitDy=0;entryX=0;entryY=0.25;entryDx=0;entryDy=0;" edge="1" parent="1" source="fxx70H4rNBe09gJKNT1c-20" target="fxx70H4rNBe09gJKNT1c-8">
          <mxGeometry relative="1" as="geometry" />
        </mxCell>
        <mxCell id="fxx70H4rNBe09gJKNT1c-20" value="BCCH" style="whiteSpace=wrap;html=1;" vertex="1" parent="1">
          <mxGeometry x="-80" width="120" height="60" as="geometry" />
        </mxCell>
        <mxCell id="fxx70H4rNBe09gJKNT1c-26" style="edgeStyle=orthogonalEdgeStyle;rounded=0;orthogonalLoop=1;jettySize=auto;html=1;exitX=1;exitY=0.5;exitDx=0;exitDy=0;entryX=0;entryY=0.5;entryDx=0;entryDy=0;" edge="1" parent="1" source="fxx70H4rNBe09gJKNT1c-23" target="fxx70H4rNBe09gJKNT1c-8">
          <mxGeometry relative="1" as="geometry" />
        </mxCell>
        <mxCell id="fxx70H4rNBe09gJKNT1c-23" value="CCCH" style="whiteSpace=wrap;html=1;" vertex="1" parent="1">
          <mxGeometry x="-80" y="80" width="120" height="60" as="geometry" />
        </mxCell>
        <mxCell id="fxx70H4rNBe09gJKNT1c-28" style="edgeStyle=orthogonalEdgeStyle;rounded=0;orthogonalLoop=1;jettySize=auto;html=1;exitX=1;exitY=0.5;exitDx=0;exitDy=0;entryX=0;entryY=0.75;entryDx=0;entryDy=0;" edge="1" parent="1" source="fxx70H4rNBe09gJKNT1c-24" target="fxx70H4rNBe09gJKNT1c-8">
          <mxGeometry relative="1" as="geometry" />
        </mxCell>
        <mxCell id="fxx70H4rNBe09gJKNT1c-24" value="DCCH" style="whiteSpace=wrap;html=1;" vertex="1" parent="1">
          <mxGeometry x="-80" y="150" width="120" height="60" as="geometry" />
        </mxCell>
        <mxCell id="fxx70H4rNBe09gJKNT1c-29" style="edgeStyle=orthogonalEdgeStyle;rounded=0;orthogonalLoop=1;jettySize=auto;html=1;exitX=1;exitY=0.5;exitDx=0;exitDy=0;entryX=0;entryY=1;entryDx=0;entryDy=0;" edge="1" parent="1" source="fxx70H4rNBe09gJKNT1c-25" target="fxx70H4rNBe09gJKNT1c-8">
          <mxGeometry relative="1" as="geometry">
            <Array as="points">
              <mxPoint x="40" y="220" />
              <mxPoint x="110" y="220" />
            </Array>
          </mxGeometry>
        </mxCell>
        <mxCell id="fxx70H4rNBe09gJKNT1c-25" value="DTCH" style="whiteSpace=wrap;html=1;" vertex="1" parent="1">
          <mxGeometry x="-80" y="222" width="120" height="60" as="geometry" />
        </mxCell>
        <mxCell id="fxx70H4rNBe09gJKNT1c-30" value="PUSCH" style="whiteSpace=wrap;html=1;" vertex="1" parent="1">
          <mxGeometry x="380" y="585" width="120" height="60" as="geometry" />
        </mxCell>
        <mxCell id="fxx70H4rNBe09gJKNT1c-31" value="PUCCH" style="whiteSpace=wrap;html=1;" vertex="1" parent="1">
          <mxGeometry x="380" y="700" width="120" height="60" as="geometry" />
        </mxCell>
        <mxCell id="fxx70H4rNBe09gJKNT1c-32" value="PRACH" style="whiteSpace=wrap;html=1;" vertex="1" parent="1">
          <mxGeometry x="380" y="810" width="120" height="60" as="geometry" />
        </mxCell>
        <mxCell id="fxx70H4rNBe09gJKNT1c-33" value="SRS" style="whiteSpace=wrap;html=1;" vertex="1" parent="1">
          <mxGeometry x="380" y="920" width="120" height="60" as="geometry" />
        </mxCell>
        <mxCell id="fxx70H4rNBe09gJKNT1c-35" style="edgeStyle=orthogonalEdgeStyle;rounded=0;orthogonalLoop=1;jettySize=auto;html=1;exitX=1;exitY=0.5;exitDx=0;exitDy=0;entryX=0;entryY=0.5;entryDx=0;entryDy=0;" edge="1" parent="1" source="fxx70H4rNBe09gJKNT1c-34" target="fxx70H4rNBe09gJKNT1c-30">
          <mxGeometry relative="1" as="geometry" />
        </mxCell>
        <mxCell id="fxx70H4rNBe09gJKNT1c-34" value="UL-SCH" style="whiteSpace=wrap;html=1;" vertex="1" parent="1">
          <mxGeometry x="110" y="585" width="120" height="60" as="geometry" />
        </mxCell>
        <mxCell id="fxx70H4rNBe09gJKNT1c-37" style="edgeStyle=orthogonalEdgeStyle;rounded=0;orthogonalLoop=1;jettySize=auto;html=1;exitX=1;exitY=0.5;exitDx=0;exitDy=0;entryX=0;entryY=0.5;entryDx=0;entryDy=0;" edge="1" parent="1" source="fxx70H4rNBe09gJKNT1c-36" target="fxx70H4rNBe09gJKNT1c-31">
          <mxGeometry relative="1" as="geometry" />
        </mxCell>
        <mxCell id="fxx70H4rNBe09gJKNT1c-36" value="UCI" style="whiteSpace=wrap;html=1;" vertex="1" parent="1">
          <mxGeometry x="235" y="715" width="50" height="30" as="geometry" />
        </mxCell>
        <mxCell id="fxx70H4rNBe09gJKNT1c-39" style="edgeStyle=orthogonalEdgeStyle;rounded=0;orthogonalLoop=1;jettySize=auto;html=1;exitX=1;exitY=0.5;exitDx=0;exitDy=0;entryX=0;entryY=0.5;entryDx=0;entryDy=0;" edge="1" parent="1" source="fxx70H4rNBe09gJKNT1c-38" target="fxx70H4rNBe09gJKNT1c-32">
          <mxGeometry relative="1" as="geometry" />
        </mxCell>
        <mxCell id="fxx70H4rNBe09gJKNT1c-38" value="RACH" style="whiteSpace=wrap;html=1;" vertex="1" parent="1">
          <mxGeometry x="110" y="810" width="120" height="60" as="geometry" />
        </mxCell>
        <mxCell id="fxx70H4rNBe09gJKNT1c-43" style="edgeStyle=orthogonalEdgeStyle;rounded=0;orthogonalLoop=1;jettySize=auto;html=1;exitX=1;exitY=0.5;exitDx=0;exitDy=0;entryX=0;entryY=0.25;entryDx=0;entryDy=0;" edge="1" parent="1" source="fxx70H4rNBe09gJKNT1c-40" target="fxx70H4rNBe09gJKNT1c-34">
          <mxGeometry relative="1" as="geometry" />
        </mxCell>
        <mxCell id="fxx70H4rNBe09gJKNT1c-40" value="CCCH" style="whiteSpace=wrap;html=1;" vertex="1" parent="1">
          <mxGeometry x="-80" y="480" width="120" height="60" as="geometry" />
        </mxCell>
        <mxCell id="fxx70H4rNBe09gJKNT1c-44" style="edgeStyle=orthogonalEdgeStyle;rounded=0;orthogonalLoop=1;jettySize=auto;html=1;exitX=1;exitY=0.5;exitDx=0;exitDy=0;entryX=0;entryY=0.5;entryDx=0;entryDy=0;" edge="1" parent="1" source="fxx70H4rNBe09gJKNT1c-41" target="fxx70H4rNBe09gJKNT1c-34">
          <mxGeometry relative="1" as="geometry" />
        </mxCell>
        <mxCell id="fxx70H4rNBe09gJKNT1c-41" value="DCCH" style="whiteSpace=wrap;html=1;" vertex="1" parent="1">
          <mxGeometry x="-80" y="585" width="120" height="60" as="geometry" />
        </mxCell>
        <mxCell id="fxx70H4rNBe09gJKNT1c-45" style="edgeStyle=orthogonalEdgeStyle;rounded=0;orthogonalLoop=1;jettySize=auto;html=1;exitX=1;exitY=0.5;exitDx=0;exitDy=0;entryX=0;entryY=0.75;entryDx=0;entryDy=0;" edge="1" parent="1" source="fxx70H4rNBe09gJKNT1c-42" target="fxx70H4rNBe09gJKNT1c-34">
          <mxGeometry relative="1" as="geometry" />
        </mxCell>
        <mxCell id="fxx70H4rNBe09gJKNT1c-42" value="DTCH" style="whiteSpace=wrap;html=1;" vertex="1" parent="1">
          <mxGeometry x="-80" y="690" width="120" height="60" as="geometry" />
        </mxCell>
      </root>
    </mxGraphModel>
  </diagram>
  <diagram id="tTICZAHvutXMUKYSc28G" name="第 14 页">
    <mxGraphModel dx="1853" dy="1670" grid="1" gridSize="10" guides="1" tooltips="1" connect="1" arrows="1" fold="1" page="1" pageScale="1" pageWidth="827" pageHeight="1169" math="0" shadow="0">
      <root>
        <mxCell id="0" />
        <mxCell id="1" parent="0" />
        <mxCell id="4n1JWVW5Efnbsn3xDoHY-6" value="" style="endArrow=classic;startArrow=classic;html=1;rounded=0;" edge="1" parent="1">
          <mxGeometry width="50" height="50" relative="1" as="geometry">
            <mxPoint x="50" y="160" as="sourcePoint" />
            <mxPoint x="720" y="160" as="targetPoint" />
          </mxGeometry>
        </mxCell>
        <mxCell id="4n1JWVW5Efnbsn3xDoHY-1" value="" style="whiteSpace=wrap;html=1;" vertex="1" parent="1">
          <mxGeometry x="280" y="120" width="40" height="80" as="geometry" />
        </mxCell>
        <mxCell id="4n1JWVW5Efnbsn3xDoHY-2" value="SSB: 20 RB" style="text;html=1;align=center;verticalAlign=middle;resizable=0;points=[];autosize=1;strokeColor=none;fillColor=none;" vertex="1" parent="1">
          <mxGeometry x="255" y="90" width="90" height="30" as="geometry" />
        </mxCell>
        <mxCell id="4n1JWVW5Efnbsn3xDoHY-4" value="SSB center frequency" style="text;html=1;align=center;verticalAlign=middle;resizable=0;points=[];autosize=1;strokeColor=none;fillColor=none;" vertex="1" parent="1">
          <mxGeometry x="720" y="145" width="140" height="30" as="geometry" />
        </mxCell>
        <mxCell id="4n1JWVW5Efnbsn3xDoHY-7" value="ant DL center frequency" style="text;html=1;align=center;verticalAlign=middle;resizable=0;points=[];autosize=1;strokeColor=none;fillColor=none;" vertex="1" parent="1">
          <mxGeometry x="-96" y="145" width="150" height="30" as="geometry" />
        </mxCell>
        <mxCell id="4n1JWVW5Efnbsn3xDoHY-8" value="" style="rounded=0;whiteSpace=wrap;html=1;" vertex="1" parent="1">
          <mxGeometry x="200" y="30" width="40" height="260" as="geometry" />
        </mxCell>
        <mxCell id="4n1JWVW5Efnbsn3xDoHY-9" value="ant DL BW: 66 RB" style="text;html=1;align=center;verticalAlign=middle;resizable=0;points=[];autosize=1;strokeColor=none;fillColor=none;" vertex="1" parent="1">
          <mxGeometry x="175" width="120" height="30" as="geometry" />
        </mxCell>
        <mxCell id="4n1JWVW5Efnbsn3xDoHY-10" value="" style="rounded=0;whiteSpace=wrap;html=1;" vertex="1" parent="1">
          <mxGeometry x="120" y="-170" width="40" height="630" as="geometry" />
        </mxCell>
        <mxCell id="4n1JWVW5Efnbsn3xDoHY-11" value="digital BW: 264 RB" style="text;html=1;align=center;verticalAlign=middle;resizable=0;points=[];autosize=1;strokeColor=none;fillColor=none;rotation=-90;" vertex="1" parent="1">
          <mxGeometry x="40" width="120" height="30" as="geometry" />
        </mxCell>
        <mxCell id="4n1JWVW5Efnbsn3xDoHY-14" value="" style="whiteSpace=wrap;html=1;" vertex="1" parent="1">
          <mxGeometry x="360" y="119" width="40" height="101" as="geometry" />
        </mxCell>
        <mxCell id="4n1JWVW5Efnbsn3xDoHY-15" value="CORESET0: 24 RB" style="text;html=1;align=center;verticalAlign=middle;resizable=0;points=[];autosize=1;strokeColor=none;fillColor=none;" vertex="1" parent="1">
          <mxGeometry x="333" y="89" width="130" height="30" as="geometry" />
        </mxCell>
        <mxCell id="4n1JWVW5Efnbsn3xDoHY-19" value="" style="shape=crossbar;whiteSpace=wrap;html=1;rounded=1;direction=south;strokeColor=#FF0000;" vertex="1" parent="1">
          <mxGeometry x="416" y="200" width="20" height="20" as="geometry" />
        </mxCell>
        <mxCell id="4n1JWVW5Efnbsn3xDoHY-20" value="&lt;font style=&quot;font-size: 9px;&quot;&gt;&lt;b&gt;OFFSET_TO_SSB: 4 RB&lt;/b&gt;&lt;/font&gt;" style="text;html=1;align=center;verticalAlign=middle;resizable=0;points=[];autosize=1;strokeColor=none;fillColor=none;" vertex="1" parent="1">
          <mxGeometry x="372" y="219" width="130" height="30" as="geometry" />
        </mxCell>
        <mxCell id="4n1JWVW5Efnbsn3xDoHY-21" value="" style="shape=crossbar;whiteSpace=wrap;html=1;rounded=1;direction=south;strokeColor=#FF0000;" vertex="1" parent="1">
          <mxGeometry x="486" y="200" width="37" height="90" as="geometry" />
        </mxCell>
        <mxCell id="4n1JWVW5Efnbsn3xDoHY-22" value="" style="endArrow=none;dashed=1;html=1;rounded=0;strokeColor=#3399FF;" edge="1" parent="1">
          <mxGeometry width="50" height="50" relative="1" as="geometry">
            <mxPoint y="200" as="sourcePoint" />
            <mxPoint x="720" y="200" as="targetPoint" />
          </mxGeometry>
        </mxCell>
        <mxCell id="4n1JWVW5Efnbsn3xDoHY-23" value="" style="endArrow=none;dashed=1;html=1;rounded=0;strokeColor=#3399FF;" edge="1" parent="1">
          <mxGeometry width="50" height="50" relative="1" as="geometry">
            <mxPoint y="220" as="sourcePoint" />
            <mxPoint x="720" y="220" as="targetPoint" />
          </mxGeometry>
        </mxCell>
        <mxCell id="4n1JWVW5Efnbsn3xDoHY-25" value="&lt;font style=&quot;font-size: 9px;&quot;&gt;&lt;b&gt;OFFSET_TO_POINTA: 23 RB&lt;/b&gt;&lt;/font&gt;" style="text;html=1;align=center;verticalAlign=middle;resizable=0;points=[];autosize=1;strokeColor=none;fillColor=none;" vertex="1" parent="1">
          <mxGeometry x="429.5" y="290" width="150" height="30" as="geometry" />
        </mxCell>
        <mxCell id="4n1JWVW5Efnbsn3xDoHY-26" value="" style="endArrow=none;dashed=1;html=1;rounded=0;strokeColor=#3399FF;" edge="1" parent="1">
          <mxGeometry width="50" height="50" relative="1" as="geometry">
            <mxPoint y="290" as="sourcePoint" />
            <mxPoint x="720" y="290" as="targetPoint" />
          </mxGeometry>
        </mxCell>
        <mxCell id="4n1JWVW5Efnbsn3xDoHY-27" value="SSB 下边沿" style="text;html=1;align=center;verticalAlign=middle;resizable=0;points=[];autosize=1;strokeColor=none;fillColor=none;" vertex="1" parent="1">
          <mxGeometry x="719" y="186" width="90" height="30" as="geometry" />
        </mxCell>
        <mxCell id="4n1JWVW5Efnbsn3xDoHY-28" value="CORESET0下边沿" style="text;html=1;align=center;verticalAlign=middle;resizable=0;points=[];autosize=1;strokeColor=none;fillColor=none;" vertex="1" parent="1">
          <mxGeometry x="722" y="205" width="120" height="30" as="geometry" />
        </mxCell>
        <mxCell id="4n1JWVW5Efnbsn3xDoHY-29" value="POINTA" style="text;html=1;align=center;verticalAlign=middle;resizable=0;points=[];autosize=1;strokeColor=none;fillColor=none;" vertex="1" parent="1">
          <mxGeometry x="719" y="278" width="70" height="30" as="geometry" />
        </mxCell>
        <mxCell id="4n1JWVW5Efnbsn3xDoHY-30" value="" style="whiteSpace=wrap;html=1;strokeColor=#CCCC00;fillColor=#FFFF33;" vertex="1" parent="1">
          <mxGeometry x="548" y="120" width="40" height="100" as="geometry" />
        </mxCell>
        <mxCell id="4n1JWVW5Efnbsn3xDoHY-31" value="initial BWP" style="text;html=1;align=center;verticalAlign=middle;resizable=0;points=[];autosize=1;strokeColor=none;fillColor=none;" vertex="1" parent="1">
          <mxGeometry x="528" y="80" width="80" height="30" as="geometry" />
        </mxCell>
        <mxCell id="4n1JWVW5Efnbsn3xDoHY-32" value="" style="whiteSpace=wrap;html=1;strokeColor=#CCCC00;fillColor=#FFFF33;" vertex="1" parent="1">
          <mxGeometry x="640" y="55" width="40" height="80" as="geometry" />
        </mxCell>
        <mxCell id="4n1JWVW5Efnbsn3xDoHY-33" value="other BWP" style="text;html=1;align=center;verticalAlign=middle;resizable=0;points=[];autosize=1;strokeColor=none;fillColor=none;" vertex="1" parent="1">
          <mxGeometry x="620" y="30" width="80" height="30" as="geometry" />
        </mxCell>
        <mxCell id="4n1JWVW5Efnbsn3xDoHY-35" value="&lt;b&gt;activated BWP&lt;/b&gt;" style="ellipse;shape=cloud;whiteSpace=wrap;html=1;fillColor=#009900;" vertex="1" parent="1">
          <mxGeometry x="380" y="-90" width="164" height="80" as="geometry" />
        </mxCell>
        <mxCell id="4n1JWVW5Efnbsn3xDoHY-37" value="" style="endArrow=classic;html=1;rounded=0;entryX=0.254;entryY=-0.056;entryDx=0;entryDy=0;entryPerimeter=0;exitX=0.55;exitY=0.95;exitDx=0;exitDy=0;exitPerimeter=0;" edge="1" parent="1" source="4n1JWVW5Efnbsn3xDoHY-35" target="4n1JWVW5Efnbsn3xDoHY-31">
          <mxGeometry width="50" height="50" relative="1" as="geometry">
            <mxPoint x="470" y="60" as="sourcePoint" />
            <mxPoint x="520" y="10" as="targetPoint" />
          </mxGeometry>
        </mxCell>
      </root>
    </mxGraphModel>
  </diagram>
</mxfile>
